<?xml version="1.0" encoding="utf-8"?>
<!-- Generator: Adobe Illustrator 21.0.2, SVG Export Plug-In . SVG Version: 6.00 Build 0)  -->
<svg version="1.1" id="Layer_1" xmlns="http://www.w3.org/2000/svg" xmlns:xlink="http://www.w3.org/1999/xlink" x="0px" y="0px"
	 viewBox="0 0 121.2 126.7" style="enable-background:new 0 0 121.2 126.7;" xml:space="preserve">
<style type="text/css">
	.st0{opacity:0.5;}
	.st1{fill-rule:evenodd;clip-rule:evenodd;fill:#2F8DCC;}
	.st2{fill-rule:evenodd;clip-rule:evenodd;fill:#FFFFFF;}
</style>
<g class="st0">
	<g>
		<g>
			<g id="test_7_">
				<g>
					<path class="st1" d="M29.3,18.8c1.5,0,3.1-0.1,4.6-0.1c1,0,2.1,0.2,3.1,0.3c0.8,0.1,1.1,0,1.6-0.8c0.3-0.5,0.1-1.1-0.4-1.6
						c-0.5-0.4-0.7-0.9-0.7-1.5c0-0.2-0.2-0.4-0.3-0.6c-0.1-0.2-0.4-0.3-0.5-0.5c-0.5-0.7-0.2-1.3,0.3-1.6c0.4-0.2,0.8-0.3,1.3-0.2
						c1.1,0.3,2,0.8,2.7,1.7c0.6,0.9,1.3,1.8,1.5,2.9c0.1,0.4,0.1,0.9,0.2,1.3c0,0.7,0.2,0.9,0.9,1c0.6,0.2,1.1,0.1,1.5-0.4
						c0.4-0.4,0.9-0.5,1.4-0.7c0.8-0.2,1.5-0.3,2.3-0.1c0.4,0.1,0.8,0.1,1.3,0.1c0.3,0,0.6-0.1,0.8-0.3c0.3-0.3,0.6-0.6,0.9-0.8
						c0.4-0.3,0.5-0.6,0.1-1c-0.9-1-1.5-2.2-1.7-3.5c-0.5-2.9-0.1-5.6,1.7-7.9c0.3-0.4,0.7-0.8,1.1-1.2C54,2.8,54.8,2.2,55.8,2
						c0.3-0.1,0.6-0.2,0.9-0.3c0.3-0.1,0.7-0.3,0.9-0.6c0.6-0.8,2-0.7,2.7-0.2C61.1,1.6,62,2,62.9,2.4c0.9,0.4,1.6,1,2.2,1.8
						c1.1,1.4,1.8,3.1,2.2,4.8c0.5,2,0.2,3.9-0.8,5.7c-0.3,0.6-0.6,1.1-1.1,1.5c-0.3,0.3-0.3,0.5,0,0.8c0.2,0.2,0.4,0.5,0.6,0.6
						c0.2,0.1,0.4,0.2,0.6,0.2c0.8,0,1.5,0,2.3,0c1,0,1.9,0.2,2.7,0.8c0.6,0.4,1.3,0.7,2.1,0.6c0.7-0.1,0.8-0.3,0.8-0.8
						c0.1-1,0.2-2.1,0.6-3.1c0.8-1.7,2.1-2.8,4-3.2c0.6-0.1,1.2,0.5,1.1,1.1c0,0.3-0.1,0.7-0.4,0.9c-0.4,0.3-0.6,0.7-0.5,1.3
						c0.1,0.4-0.2,0.8-0.5,1.1c-0.5,0.4-0.5,0.9-0.2,1.4c0,0,0,0.1,0,0.1c0.3,0.7,0.5,0.7,1.2,0.7c0.8-0.1,1.6,0,2.4,0
						c0.6,0,1.3,0.1,1.9,0c0.8-0.1,1.5,0,2.3,0.1c1.1,0.1,2.1,0.2,3.2,0.1c1.1-0.1,2.2,0.1,3,1c0.8,0.9,1.3,1.9,1.6,3
						c0.2,0.6,0.4,1.2,0.1,1.9c-0.4,0.8-0.9,1.5-1.7,1.9c-1.6,0.8-3.3,1.6-5,2.1c-0.2,0.1-0.4,0.1-0.7,0.1c-0.2,0-0.4,0.1-0.4,0.3
						c0,0.3,0.1,0.4,0.3,0.5c0.3,0.1,0.6,0.2,0.9,0.2c0.9,0.1,1.5,0.6,1.8,1.4c0.1,0.3,0.3,0.7,0.3,1c0.1,0.6,0.4,1,0.9,1.3
						c0.1,0.1,0.2,0.1,0.4,0.2c1.1,0.5,1.5,1.4,1.6,2.5c0.1,1.1,0,1.1,1,1.7c0.7,0.4,0.9,1,1,1.7c0,0.2,0,0.5,0,0.7
						c0,0.5,0.2,0.8,0.5,1.1c0.1,0.1,0.3,0.2,0.4,0.3c0.7,0.5,0.9,1.1,0.8,1.9c-0.1,0.5-0.1,0.9-0.1,1.4c0,0.3,0.1,0.6,0.3,0.8
						c0.2,0.2,0.4,0.3,0.6,0.5c0.7,0.5,1,1.3,0.7,2.2c0,0.1-0.1,0.2-0.1,0.3c-0.4,0.6-0.3,1.3-0.3,2c0,0.2,0.2,0.5,0.3,0.7
						c0.1,0.2,0.3,0.4,0.5,0.6c0.5,0.7,0.5,1.4,0.1,2.1c-0.2,0.3-0.3,0.6-0.4,1c-0.1,0.4-0.1,0.7,0.1,1.1c0,0.1,0.1,0.2,0.1,0.3
						c0.5,1,0.1,1.9-0.4,2.8c-0.2,0.3-0.5,0.6-0.6,0.9c-0.3,0.5-0.3,1.1-0.2,1.6c0.2,0.9-0.1,1.7-0.6,2.4c-0.1,0.1-0.2,0.2-0.2,0.3
						c-0.5,0.5-0.7,1.1-0.6,1.8c0,0.4-0.1,0.8-0.2,1.1c-0.1,0.4-0.3,0.6-0.6,0.8c-0.2,0.1-0.3,0.2-0.5,0.4c-0.3,0.3-0.5,0.6-0.5,1
						c0,0.2-0.1,0.5-0.1,0.7c-0.2,0.6-0.4,1.2-1,1.5c-0.3,0.1-0.5,0.4-0.8,0.5c-0.4,0.2-0.7,0.6-0.8,1.1c-0.2,0.7-0.6,1.1-1.1,1.5
						c-0.4,0.3-0.7,0.6-1.1,0.8c-0.2,0.2-0.4,0.3-0.7,0.4c-0.4,0.2-0.7,0.5-0.9,1c0,0.1-0.1,0.3-0.1,0.4c-0.3,1-1,1.5-2,1.5
						c-0.6,0-1.1,0.3-1.5,0.7c0,0,0,0-0.1,0.1c-0.5,0.6-1.1,0.9-1.9,0.8c-0.5-0.1-0.9,0.1-1.2,0.4c-0.1,0.1-0.2,0.1-0.3,0.2
						c-0.5,0.4-1.1,0.6-1.8,0.5c-0.1,0-0.4,0-0.4,0.1c-0.1,0.2,0.2,0.3,0.4,0.3c0.7,0.2,1.4,0.4,2.1,0.4c1.3,0.1,2.6,0.2,3.9-0.3
						c0.1,0,0.1-0.1,0.2-0.1c0.6-0.1,1.1-0.4,1.5-0.8c1.1-1.1,2.1-2.2,3.2-3.4c1.2-1.3,2.2-2.7,3.2-4.1c1.3-1.7,2.5-3.6,3.6-5.5
						c1-1.8,2-3.6,2.7-5.5c0.2-0.6,0.4-1.3,0.6-1.9c0-0.1,0.1-0.3,0.1-0.4c0.1-0.2,0.2-0.4,0.5-0.4c0.3,0,0.4,0.1,0.6,0.3
						c0.3,0.5,0.6,1.1,0.8,1.6c0,0.1,0.1,0.2,0.1,0.3c0.2,0.3,0.4,0.3,0.7,0.1c0.2-0.2,0.3-0.4,0.5-0.6c0.4-0.5,0.9-1.1,1.3-1.6
						c0.1-0.1,0.2-0.3,0.3-0.4c0.9-0.7,1.7-1.5,2.6-2.2c0.7-0.6,1.6-0.8,2.5-0.9c1.3-0.2,2.4,0.1,3.5,0.7c0.6,0.3,1.1,0.6,1.6,1.1
						c1.1,1.2,1.6,2.6,1.1,4.1c-0.4,1.4-1.3,2.4-2.9,2.6c-0.5,0.1-0.9-0.1-1.4-0.4c-0.7-0.5-1.1-1.4-0.9-2.2c0-0.2,0.1-0.4,0.1-0.5
						c0-0.2-0.1-0.3-0.3-0.2c-0.1,0.1-0.3,0.2-0.4,0.3c-0.3,0.3-0.6,0.5-1,0.6c-0.4,0-0.5,0.2-0.6,0.6c-0.1,0.6-0.4,1.1-1,1.4
						c-0.3,0.2-0.5,0.5-0.5,0.9c-0.1,0.6-0.3,1-0.8,1.3c-0.3,0.2-0.5,0.5-0.6,0.8c-0.2,0.7-0.5,1.4-1.1,1.8
						c-0.5,0.4-0.6,0.9-0.5,1.5c0.2,1,0.2,2.1,0.4,3.1c0.2,1.3,0.2,2.5,0.2,3.8c0,1-0.2,2.1-0.2,3.1c0,0.1,0,0.3,0,0.4
						c-0.1,1.3-0.2,2.6-0.4,3.8c-0.2,1.7-0.8,3.2-1.3,4.8c-0.2,0.7-0.2,0.6,0.3,1c0.6,0.4,1.1,0.9,1.6,1.4c0.5,0.5,0.6,1.2,0.8,1.8
						c0.6,1.7,0.2,3.4-0.4,5c-0.3,0.8-0.7,1.5-1.2,2.1c-1,1.5-1.9,3-2.4,4.7c-0.3,0.9-0.2,1.8-0.2,2.7c0,0.2,0.2,0.5,0.2,0.7
						c0.2,0.7-0.1,1-0.8,1c-0.6-0.1-1-0.5-1.3-0.9c-0.5-0.6-0.7-1.3-0.7-2.1c0-0.5-0.1-1-0.4-1.5c-0.3-0.5-0.4-1-0.1-1.6
						c0.2-0.6,0.2-1.1-0.1-1.7c-0.3-0.6-0.3-1.1,0.1-1.6c0.4-0.6,0.5-1.1,0.2-1.8c-0.2-0.4-0.2-0.8,0-1.1c0.1-0.1,0.1-0.3,0.2-0.4
						c0.1-0.3,0-0.7-0.3-0.8c-0.5-0.2-1.1-0.4-1.6,0.1C95.5,98,95,98,94.5,97.8c-0.4-0.1-0.7-0.1-0.9,0.2c-0.4,0.4-0.9,0.6-1.5,0.4
						c-0.6-0.2-0.9,0-1.1,0.6c-0.3,0.7-0.7,1.3-1.3,1.7c-1.4,1.2-2.9,2.4-4.5,3.4c-0.4,0.2-0.8,0.4-1.2,0.6
						c-0.4,0.1-0.4,0.3-0.3,0.6c0,0.1,0.1,0.1,0.2,0.2c0.1,0.2,0.2,0.3,0.3,0.5c0.5,1.4,0.5,2.8-0.3,4.1c-0.6,0.9-1.2,1.6-2.2,2.2
						c-0.4,0.2-0.8,0.5-1.3,0.7c-0.8,0.5-1.5,1.2-2.1,2c-0.1,0.1-0.1,0.2-0.1,0.3c-0.1,0.4,0.1,0.5,0.4,0.4c0.3-0.1,0.6-0.2,0.9-0.2
						c1-0.2,2.2,0.4,2.5,1.4c0.1,0.3,0.1,0.5,0.1,0.8c-0.1,1.7-1,2.7-2.8,2.8c-0.6,0-1,0.2-1.4,0.6c-0.3,0.4-0.7,0.8-1.3,0.9
						c-0.9,0.2-1.7,0-2.5-0.5c-0.3-0.2-0.5-0.5-0.4-0.9c0.1-0.4,0.3-0.6,0.7-0.7c0.2-0.1,0.5-0.1,0.7-0.2c0.7-0.2,1-0.7,0.7-1.4
						c-0.2-0.6-0.5-1.1-0.9-1.6c-0.4-0.5-0.5-1-0.3-1.6c0.2-0.5,0.2-1,0.1-1.5c-0.1-0.6,0.1-1.2,0.6-1.5c0.4-0.3,0.7-0.7,0.8-1.2
						c0-0.5,0.3-0.8,0.7-1c0.5-0.3,0.6-0.7,0.4-1.1c-0.3-0.5-0.7-0.7-1.2-0.6c-1,0.4-2.1,0.8-3.1,1.2c-1.2,0.5-2.3,1-3.5,1.5
						c-2.1,1-4.2,2-6.1,3.4c-0.7,0.5-1.5,1.1-2.1,1.8c-0.3,0.3-0.6,0.7-1,1c-0.5,0.4-1,0.8-1.5,1.3c-0.4,0.4-0.6,0.4-1-0.1
						c-0.4-0.5-0.8-1-1.2-1.4c-0.9-0.9-1.9-1.7-3-2.5c-0.4-0.3-0.7-0.6-1.1-0.8c-1.8-1.1-3.6-2.2-5.6-3c-0.5-0.2-1-0.5-1.5-0.7
						c-0.7-0.3-1.5-0.6-2.2-1c-0.7-0.3-1.3-0.7-2-1c-0.5-0.3-0.8-0.3-1.1,0c-0.5,0.4-0.5,0.8-0.3,1.3c0.2,0.4,0.4,0.8,0.4,1.2
						c0,0.3,0.3,0.6,0.6,0.7c0.7,0.3,1.2,0.8,1.2,1.6c0,0.3,0.2,0.7,0.4,0.9c0.4,0.6,0.5,1.1,0.2,1.8c-0.2,0.4-0.2,0.9-0.2,1.3
						c0,0.7-0.2,1.3-0.7,1.8c-0.5,0.4-0.6,1,0.1,1.5c0.3,0.2,0.6,0.4,1,0.5c1,0.4,0.9,1,0.2,1.5c-0.8,0.7-1.7,0.9-2.8,0.4
						c-0.6-0.3-1.2-0.6-1.5-1.2c-0.2-0.3-0.5-0.5-0.8-0.4c-0.4,0-0.8-0.1-1.1-0.3c-0.3-0.2-0.6-0.4-0.9-0.6
						c-0.8-0.5-1.2-1.2-1.3-2.1c0-0.8,0.3-1.5,1.1-2c0.8-0.5,1.6-0.5,2.4,0c0.2,0.1,0.3,0.3,0.5,0.4c0.1,0.1,0.2,0.3,0.3,0.4
						c0.1,0.1,0.2,0.2,0.3,0.1c0.1,0,0.2-0.2,0.2-0.3c0.1-1-0.2-1.8-1-2.5c-0.5-0.5-1.2-0.8-1.8-1.1c-0.7-0.4-1.5-0.9-2.1-1.4
						c-1.2-1-2-2.2-2.2-3.8c-0.1-0.8,0.2-1.5,0.7-2.2c0.1-0.2,0.2-0.3,0.4-0.5c0.3-0.4,0.2-0.6-0.2-0.8c-1.2-0.6-2.4-1.2-3.5-1.8
						c-0.8-0.5-1.6-1-2.3-1.7c-0.2-0.2-0.5-0.4-0.7-0.6c-0.4-0.3-0.7-0.7-1.1-1c-0.2-0.2-0.5-0.4-0.7-0.5c-0.3-0.2-0.6-0.4-0.8-0.6
						c-0.4-0.5-0.9-0.6-1.5-0.5c-0.6,0.1-1.2,0.1-1.7-0.3c-0.4-0.3-0.7-0.2-0.9,0.2c-0.2,0.3-0.5,0.6-0.7,0.9
						c-0.3,0.3-0.4,0.6-0.3,1c0,0.1,0,0.2,0.1,0.4c0.3,0.6,0.4,1.2,0.3,1.8c0,0.4,0.1,0.7,0.4,1c0.6,0.5,0.7,1.2,0.5,1.9
						c-0.1,0.5-0.1,0.9,0,1.3c0.1,0.4,0.1,0.9-0.1,1.3c0,0.1-0.1,0.2-0.1,0.3c-0.4,0.7-0.7,1.5-0.8,2.3c-0.1,0.7-0.4,1.3-1,1.8
						c-0.2,0.2-0.5,0.3-0.8,0.2c-0.3-0.1-0.5-0.4-0.5-0.7c0-0.4,0-0.8,0.1-1.2c0.3-1.9-0.2-3.5-1.3-5.1c-0.5-0.8-1.1-1.5-1.7-2.3
						c-0.4-0.5-0.8-0.9-1.1-1.4c-0.7-1-1-2.2-1.1-3.3c-0.1-1.5,0.4-2.8,1.4-3.9c0.5-0.5,1-1,1.5-1.4c0.3-0.3,0.4-0.5,0.2-1
						c-0.2-0.7-0.5-1.4-0.7-2.1c-0.3-1.1-0.6-2.2-0.8-3.3c-0.2-1.3-0.4-2.7-0.5-4.1c-0.1-0.7-0.2-1.4,0-2c0.1-0.2,0-0.5,0-0.8
						c0-1.4,0.1-2.8,0.3-4.3c0.1-0.9,0.3-1.8,0.4-2.7c0-0.3-0.1-0.5-0.2-0.7c-0.3-0.4-0.5-0.8-0.8-1.1c-0.2-0.2-0.3-0.5-0.5-0.7
						c-0.3-0.3-0.5-0.7-0.5-1.2c0-0.6-0.3-1-0.8-1.3c-0.7-0.4-1-1-0.9-1.7c0-0.3-0.1-0.5-0.4-0.7c-0.1-0.1-0.2-0.1-0.3-0.2
						c-0.7-0.2-1.2-0.6-1.5-1.3c0,0,0-0.1-0.1-0.1c-0.1-0.1-0.3-0.2-0.4-0.2c-0.2,0.1-0.2,0.3-0.1,0.4c0.1,0.5,0.2,1,0.1,1.5
						c-0.1,0.4-0.3,0.8-0.6,1.1c-0.5,0.7-1.2,0.8-2,0.7C3.4,66,2,64.9,1.7,63.1c-0.2-1.2,0.1-2.2,0.8-3.1c0.1-0.1,0.2-0.3,0.4-0.4
						c1.1-0.8,2.3-1.5,3.6-1.6c1.7-0.2,3.2,0,4.7,0.8c1.1,0.6,2.2,1.4,3.1,2.2c0.4,0.4,0.7,0.8,1,1.2c0.1,0.2,0.3,0.5,0.5,0.4
						c0.3,0,0.3-0.3,0.4-0.6c0.2-0.6,0.5-1.2,0.7-1.8c0-0.1,0.1-0.3,0.2-0.3c0.2-0.2,0.5-0.2,0.6,0.1c0.1,0.1,0.1,0.3,0.1,0.4
						c0,1.4,0.6,2.7,1,4c0.8,2.3,2,4.4,3.5,6.4c0.7,0.9,1.4,1.8,2.1,2.6c0.9,1.1,1.7,2.2,2.5,3.3c0.4,0.5,1,1,1.4,1.5
						c1.1,1.1,2.2,2.1,3.3,3.2c0.1,0.1,0.3,0.2,0.3,0.4c0.5,0.8,1.3,1.1,2.1,1.2c1.1,0.1,2.3,0.2,3.4,0.2c1.1,0,2.1-0.4,3.2-0.8
						c0.1,0,0.2-0.1,0.2-0.1c0.1-0.1,0.1-0.2,0.2-0.3c-0.1,0-0.2-0.1-0.3-0.1c-0.4-0.1-0.8-0.2-1.1-0.4c-0.4-0.2-0.8-0.3-1.3-0.3
						c-0.4,0-0.7,0-1.1,0c-0.5,0-1-0.2-1.3-0.5c-0.6-0.7-1.3-0.9-2.2-0.9c-1,0-1.8-0.4-2.4-1.2c-0.3-0.4-0.7-0.8-1.1-1.2
						c-0.2-0.2-0.5-0.4-0.8-0.5c-1.3-0.3-2.1-1.1-2.7-2.3c-0.1-0.2-0.2-0.5-0.3-0.7c-0.2-0.4-0.5-0.8-1-1c-0.1-0.1-0.2-0.1-0.4-0.2
						c-1-0.4-1.5-1.3-1.6-2.3c-0.1-0.6-0.3-1.1-0.8-1.4c-0.8-0.5-1.2-1.4-1.3-2.3c-0.1-0.4-0.1-0.8-0.2-1.3
						c-0.1-0.4-0.3-0.8-0.6-1.1c-0.4-0.4-0.8-0.9-0.8-1.5c0-0.3,0-0.6,0-0.9c0.1-0.7,0.1-1.4-0.3-2c-0.4-0.6-0.6-1.3-0.9-2
						c-0.2-0.4-0.2-0.9,0-1.4c0.3-0.8,0.4-1.6,0-2.5c-0.3-0.6-0.2-1.3,0.1-1.9c0.3-0.5,0.5-1,0.5-1.6c0-0.2-0.1-0.5-0.1-0.7
						c-0.1-0.5-0.3-1.1-0.1-1.6c0.2-0.5,0.5-1,0.8-1.4c0.4-0.4,0.6-0.9,0.6-1.5c0-0.5,0-1,0.1-1.5c0.1-0.7,0.4-1.2,0.9-1.7
						c0.1-0.1,0.3-0.3,0.4-0.4c0.4-0.4,0.5-0.8,0.6-1.3c0-0.5,0.1-0.9,0.2-1.4c0.1-0.6,0.4-1.1,1-1.4c0.1-0.1,0.2-0.2,0.3-0.3
						c0.5-0.3,0.7-0.8,0.8-1.3c0-0.3,0.1-0.6,0.2-0.9c0.1-0.6,0.4-0.9,1-1.2c0.2-0.1,0.4-0.2,0.7-0.4c0.3-0.2,0.6-0.6,0.6-1
						c0.1-1.2,0.7-1.9,1.9-2.1c0.5-0.1,0.8-0.4,1-0.8c0.2-0.4,0.1-0.7-0.3-0.8c-1.2-0.4-2.4-0.9-3.5-1.3c-0.9-0.4-1.8-0.8-2.7-1.3
						c-0.6-0.3-0.9-0.8-0.9-1.5c0-0.4,0.1-0.8,0.1-1.1c0.3-1.2,0.5-2.4,1.1-3.4c0.4-0.6,0.9-1,1.6-1.2c0.8-0.3,1.7-0.4,2.6-0.4
						C28.4,18.8,28.9,18.7,29.3,18.8C29.3,18.7,29.3,18.7,29.3,18.8z M104.2,96.7c0-0.4-0.1-0.9-0.1-1.3c-0.2-1.3-1-2.2-1.9-3
						c-0.3-0.3-0.6-0.2-0.8,0.2c-0.1,0.2-0.2,0.5-0.3,0.7c-0.2,0.6-0.4,1.2-0.9,1.6c-0.1,0.1-0.1,0.2-0.2,0.3
						c-0.1,0.2-0.3,0.4-0.5,0.6c-0.1,0.1-0.3,0.2-0.5,0.2c-0.2,0-0.3-0.2-0.3-0.4c0-0.1,0-0.2-0.1-0.3c0-0.4-0.1-0.8-0.1-1.3
						c0-1-0.1-2-0.1-3c0-0.5-0.2-0.7-0.7-0.7c-0.7,0-1.4,0.1-2.1,0.1c0,0-0.1,0-0.1,0c-1,0.2-2.1,0.3-3.1,0.5
						c-1.8,0.3-3.7,0.7-5.5,1.1c-0.9,0.2-1.8,0.4-2.7,0.4c-0.4,0-0.9,0.1-1.3,0.1c-0.6,0-1.2,0-1.8,0c-0.3,0-0.5,0-0.8,0
						c-0.1,0-0.3,0-0.5,0c-0.7-0.1-1.5-0.2-2.2-0.5c-1.7-0.6-3.4-1.3-4.9-2.5c-0.4-0.3-0.6-0.6-0.8-1.1c-0.2-0.4-0.3-0.8-0.5-1.1
						c-0.1-0.2-0.2-0.4,0-0.5c0.2-0.2,0.4-0.1,0.5,0c0.5,0.3,1,0.5,1.6,0.7c0.2,0.1,0.4,0.2,0.7,0.2c0.8,0.1,1.5,0.4,2.1,0.9
						c0.3,0.2,0.6,0.3,0.9,0.3c0.3,0,0.5,0,0.8,0c0.4,0.1,0.8,0.1,1.1,0.3c0.5,0.3,1.1,0.4,1.6,0.3c0.4-0.1,0.8,0,1.1,0.2
						c0.6,0.3,0.9,0.3,1.4-0.2c0.7-0.7,1.5-1.4,2.1-2.2c0.5-0.6,1-1.1,1.5-1.8c0.4-0.6,0.8-1.2,1.2-1.7c0.1-0.1,0.1-0.3,0.1-0.4
						c-0.1-0.1-0.3-0.1-0.4-0.1c-0.1,0-0.3,0-0.4,0.1c-0.3,0-0.6,0.1-0.9,0.1c-0.7,0.1-1.5,0.2-2.2,0.2c-0.2,0-0.4,0-0.6-0.1
						c-0.3-0.1-0.5-0.1-0.8-0.1c-0.4,0.1-0.8,0.2-1.2,0.2c-0.4,0-0.8,0-1.3-0.1c-1.6-0.2-3.2-0.6-4.7-1.3c-0.3-0.2-0.6-0.4-0.7-0.7
						c-0.1-0.1-0.1-0.4-0.1-0.5c0.1-0.1,0.3-0.1,0.4-0.1c0.5,0,1,0.1,1.5-0.1c0.5-0.2,0.9-0.3,1.4-0.1c0.3,0.1,0.6,0,0.9-0.1
						c0.2-0.1,0.3-0.2,0.5-0.3c0.6-0.5,1.2-0.8,2-0.6c0.5,0.1,0.8-0.1,1.1-0.4c0.1-0.2,0.3-0.3,0.5-0.5c0.5-0.5,1.1-0.8,1.8-0.8
						c0.6,0,0.9-0.3,1.1-0.8c0-0.1,0.1-0.2,0.1-0.3c0.2-0.8,0.6-1.2,1.4-1.5c0.2-0.1,0.3-0.1,0.4-0.2c0.3-0.2,0.6-0.4,0.8-0.6
						c0.6-0.5,1-1.1,1.3-1.8c0.2-0.5,0.5-0.8,1-1.1c0.2-0.2,0.5-0.3,0.7-0.5c0.6-0.3,0.8-0.8,0.8-1.4c0-0.9,0.4-1.6,1.1-2.1
						c0.6-0.4,0.8-1,0.7-1.6c-0.1-0.4,0-0.8,0.2-1.1c0.2-0.4,0.5-0.8,0.8-1.1c0.6-0.6,0.7-1.3,0.6-2.2c-0.1-0.4,0-0.8,0-1.2
						c0.1-0.6,0.5-1.2,0.9-1.6c0.4-0.5,0.6-1,0.5-1.6c0-0.3-0.1-0.6-0.2-0.9c-0.2-0.5-0.2-1-0.1-1.5c0.1-0.3,0.2-0.6,0.4-0.9
						c0.4-0.8,0.4-1.2-0.2-1.8c0,0,0,0-0.1-0.1c-0.7-0.8-1-1.7-0.5-2.8c0.1-0.3,0.2-0.7,0.3-1c0.2-0.7,0-1.2-0.6-1.6
						c-0.3-0.2-0.6-0.5-0.8-0.8c-0.4-0.5-0.4-1.1-0.2-1.7c0.2-0.9,0.1-1.6-0.8-2.1c-0.5-0.3-0.8-0.8-0.9-1.4c-0.1-0.3-0.1-0.7-0.1-1
						c0-0.6-0.2-0.9-0.7-1.2c-0.5-0.2-0.9-0.7-1-1.2c-0.1-0.5-0.1-0.9-0.2-1.4c0-0.5-0.3-0.9-0.7-1.2c-0.1-0.1-0.2-0.1-0.3-0.1
						c-0.9-0.5-1.7-1.1-1.8-2.3c0,0,0-0.1,0-0.1c-0.1-0.9-0.7-1.3-1.6-1.4c-1.1-0.1-1.8-0.8-1.9-2c-0.1-0.7-0.2-0.9-0.9-1
						c-0.1,0-0.1,0-0.2,0c-0.7-0.1-1.3-0.5-1.6-1.2c-0.1-0.4-0.3-0.8-0.4-1.2c-0.1-0.5-0.3-0.6-0.8-0.6c-0.1,0-0.2,0-0.2,0
						c-0.6-0.1-1-0.3-1.3-0.8c-0.2-0.4-0.4-0.8-0.4-1.3c0-0.4-0.1-0.6-0.5-0.8c-0.1-0.1-0.2-0.1-0.3-0.2c-0.8-0.5-1.4-1.4-1-2.5
						c0.1-0.3,0.1-0.6-0.1-0.9c-0.5-0.8-0.4-1.5,0.3-2.1c0,0,0,0,0.1-0.1c0.3-0.3,0.3-0.6,0.2-0.9c-0.1-0.5,0-0.8,0.4-1.2
						c0.1-0.1,0.3-0.2,0.4-0.3c0.1-0.1,0.1-0.2,0.1-0.3c-0.1-0.1-0.2-0.2-0.3-0.2c-0.2,0-0.5,0-0.7,0.1c-0.7,0.3-1.3,0.9-1.8,1.5
						c-0.3,0.5-0.7,1-0.8,1.6c-0.1,0.8-0.2,1.5-0.2,2.3c0,0.4,0.1,0.8,0.1,1.2c0,1,0.3,2,0.6,2.9c0.5,1.7,1.5,3.1,2.4,4.5
						c0.9,1.4,1.9,2.6,2.9,4c1.3,1.9,2.6,3.7,3.8,5.6c0.9,1.3,1.9,2.6,2.6,4.1c0.6,1.2,1.3,2.3,1.7,3.6c0.1,0.3,0.2,0.6,0.4,0.9
						c0.5,1.4,1,2.8,1.4,4.3c0.3,1.2,0.4,2.3,0.6,3.5c0.1,0.8,0.2,1.6,0.2,2.3c0,1-0.2,2-0.4,3c-0.4,1.8-0.9,3.6-1.7,5.3
						c-1,2.1-2.1,4.1-3.8,5.6c-0.2,0.2-0.5,0.4-0.7,0.7c-0.6,0.6-1.2,1-2,1.3c-0.3,0.1-0.6,0.2-0.8,0.3c-1,0.6-2.2,0.6-3.4,0.7
						c-0.9,0-1.8,0-2.8-0.2c-0.7-0.2-1.5-0.2-2.2-0.4c-1.1-0.3-2-0.9-2.9-1.5c-0.7-0.5-0.7-0.3-0.9,0.4c0,0,0,0.1,0,0.1
						c-0.1,0.9-0.3,1.7-0.5,2.6c-0.2,1.1-0.8,2.1-1.4,3.1c-0.1,0.1-0.4,0.3-0.4,0.3c-0.3-0.1-0.1-0.3,0-0.5c0.7-1.5,1.2-3.1,1.3-4.7
						c0.1-1.1,0.2-2.2,0.3-3.3c0.1-1.1-0.2-2.1-0.5-3.2c-0.3-0.9-0.9-1.4-1.8-1.7c-1.3-0.3-2.5-0.1-3.5,0.7
						c-0.9,0.7-1.6,1.6-2.4,2.4c-0.9,0.9-1.7,1.8-3,2.1c-1.4,0.4-2.6,0.1-3.7-0.8c-0.5-0.4-1-0.8-1.5-1.3c-0.5-0.5-1.1-1-1.6-1.4
						c-1.1-0.8-2.3-1.5-3.8-1.3c-0.7,0.1-1.4,0.3-1.8,0.9c-0.2,0.3-0.4,0.7-0.6,1.1c-0.6,1.8-0.5,3.6-0.2,5.4
						c0.2,1.5,0.8,2.9,1.5,4.2c0.4,0.7,0.8,1.4,1.3,2.1c0.2,0.3,0.1,0.5-0.1,0.6c-0.2,0.1-0.4,0-0.5-0.2c-0.5-0.7-1.1-1.4-1.5-2.2
						c-0.6-1.1-1-2.3-1.3-3.5c-0.1-0.3-0.1-0.7-0.2-1c-0.1-0.4-0.3-0.5-0.7-0.3c-0.1,0.1-0.3,0.2-0.4,0.3c-0.6,0.4-1.3,0.7-2,0.9
						c-0.6,0.1-1.1,0.2-1.7,0.3c-0.4,0.1-0.9,0.2-1.3,0.1c-1-0.1-2-0.3-3-0.5c-1.7-0.4-3.1-1.4-4.5-2.4c-0.2-0.1-0.3-0.3-0.4-0.4
						c-0.3-0.4-0.7-0.7-1-1.1c-0.4-0.5-0.8-0.9-1.2-1.4c-0.3-0.4-0.6-0.9-0.8-1.4c-0.5-1.1-1-2.2-1.5-3.4c-0.3-0.7-0.4-1.4-0.6-2
						c-0.3-1.1-0.6-2.1-0.7-3.3c0-0.7-0.2-1.4-0.2-2.1c0-0.5,0-0.9,0-1.4c0.1-0.8,0.1-1.7,0.2-2.5c0.1-0.9,0.2-1.8,0.4-2.6
						c0.4-1.7,1.2-3.2,1.9-4.8c0.3-0.7,0.8-1.4,1.1-2.1c0.8-1.6,1.7-3,2.6-4.5c0.7-1,1.4-2,2.2-3c0.6-0.8,1.2-1.6,1.8-2.4
						c0.8-1,1.6-1.9,2.3-2.8c0.6-0.7,1.1-1.4,1.6-2.1c0.5-0.6,1-1.3,1.2-2c0.3-0.7,0.6-1.4,0.9-2.2c0.4-1.1,0.8-2.2,0.7-3.4
						c0-0.4,0-0.7-0.1-1.1c-0.1-0.4-0.1-0.9-0.3-1.3c-0.4-1.1-1.1-2-2-2.6c-0.4-0.3-0.9-0.5-1.4-0.6c-0.2-0.1-0.5-0.1-0.6,0.2
						c-0.1,0.3,0.2,0.4,0.3,0.5c0.4,0.3,0.6,0.6,0.6,1.1c0,0.3,0.1,0.6,0.4,0.8c0.1,0.1,0.2,0.2,0.3,0.3c0.7,0.7,0.8,1.8,0.2,2.7
						c-0.1,0.2-0.2,0.4-0.3,0.6c-0.1,0.5-0.1,0.9-0.1,1.4c0.1,0.9-0.5,1.9-1.4,2.1c-0.5,0.1-0.7,0.4-0.8,0.8
						c-0.2,0.9-0.7,1.6-1.7,1.8c-0.4,0.1-0.6,0.3-0.7,0.7c0,0.1-0.1,0.3-0.1,0.4c-0.3,0.9-1,1.6-1.9,1.8c-0.7,0.1-1.1,0.4-1.2,1.2
						c0,0.1-0.1,0.3-0.1,0.4c-0.4,0.8-0.9,1.4-1.8,1.5c-0.6,0.1-0.9,0.5-1,1.1c-0.1,0.8-0.6,1.5-1.3,1.9c-0.7,0.3-1.1,0.8-1.1,1.6
						c0,0.1,0,0.2,0,0.2c-0.1,0.6-0.3,1.1-0.8,1.5c-0.2,0.2-0.4,0.3-0.6,0.5c-0.5,0.4-0.8,0.9-0.7,1.5c0,0.6-0.1,1.2-0.4,1.8
						c-0.2,0.5-0.6,0.9-1,1.2c-0.4,0.4-0.6,0.9-0.6,1.5c0,0.3,0,0.5,0,0.8c0,0.9-0.3,1.8-0.9,2.4c-0.7,0.7-0.8,1.5-0.5,2.4
						c0.1,0.2,0.1,0.4,0.1,0.7c0,0.6-0.2,1.2-0.4,1.7c-0.3,0.6-0.4,1.2-0.1,1.8c0.2,0.6,0.3,1.3,0.1,2c-0.1,0.3-0.2,0.6-0.2,0.8
						c-0.1,1,0.3,2,0.8,2.8c0.4,0.8,0.6,1.5,0.4,2.3c-0.1,0.7-0.1,1.3,0.5,1.8c0.7,0.7,1,1.6,1,2.5c0,0.9,0.4,1.6,1.1,2.1
						c0.6,0.4,1,0.9,1,1.6c0.1,1.1,0.7,1.8,1.7,2.2c0.6,0.2,1,0.7,1.2,1.2c0.2,0.4,0.3,0.7,0.5,1.1c0.3,0.7,0.9,1.1,1.6,1.4
						c0.3,0.1,0.5,0.1,0.8,0.3c0.3,0.2,0.6,0.3,0.8,0.6c0.4,0.4,0.7,0.9,1.1,1.3c0.4,0.5,0.8,0.7,1.4,0.8c0.3,0,0.7,0,1,0.1
						c0.7,0.1,1.3,0.4,1.7,0.8c0.4,0.4,0.8,0.6,1.4,0.5c0.2,0,0.3,0,0.5,0c0.7,0,1.3,0.1,1.9,0.4c0.5,0.2,1,0.3,1.5,0.2
						c0.6-0.1,1.2-0.1,1.8,0c0.3,0,0.4,0.3,0.3,0.5c-0.1,0.1-0.2,0.3-0.3,0.4c-0.5,0.2-0.8,0.5-1.1,0.9c-0.1,0.1-0.2,0.2-0.3,0.2
						c-0.8,0.7-1.8,0.9-2.8,1.2c-1,0.3-2.1,0.3-3.2,0.2c-0.5-0.1-1-0.1-1.5,0.3c-0.1,0.1-0.5,0.1-0.7,0.1c-1.2,0-2.3-0.1-3.5-0.2
						c-0.6,0-0.8,0.3-0.4,0.8c0,0,0,0.1,0.1,0.1c1,1.5,2,2.9,3.3,4.1c0.6,0.6,1.4,1.1,2.3,0.9c0.3,0,0.6-0.1,0.9-0.2
						c0.4-0.1,0.7-0.2,1.1-0.1c0.5,0.1,1,0.2,1.5-0.3c0.5-0.5,1-0.6,1.7-0.6c0.4,0,0.8-0.1,1-0.4c0.4-0.4,0.8-0.6,1.3-0.6
						c0.5,0,1-0.2,1.3-0.6c0.1-0.1,0.2-0.2,0.4-0.3c0.3-0.2,0.6,0,0.7,0.3c0,0.1,0,0.3-0.1,0.4c-0.1,0.3-0.3,0.5-0.4,0.8
						c-0.7,1.3-1.6,2.2-3,2.8c-0.3,0.1-0.6,0.3-0.9,0.4c-1.3,0.5-2.6,0.9-4,0.9c-0.4,0-0.8,0-1.2,0c-1.5,0.2-2.9,0.1-4.3-0.2
						c-1.4-0.2-2.7-0.4-4.1-0.6c-0.7-0.1-1.5-0.1-2.3-0.2c-0.9-0.2-1.9-0.3-2.8-0.4c-0.4-0.1-0.8-0.1-1.3-0.1
						c-0.2,0-0.5,0.1-0.7,0.1c-0.7,0-0.9,0.1-1.1,0.9c-0.2,1-0.4,1.9-0.6,2.9c0,0.2-0.1,0.3-0.2,0.5c-0.2,0.3-0.5,0.3-0.7,0
						c-0.3-0.4-0.6-0.8-0.8-1.2c-0.3-0.5-0.6-1-1-1.5c-0.3-0.4-0.5-0.4-0.9-0.1c-0.3,0.2-0.5,0.5-0.7,0.7c-0.9,0.9-1.4,2-1.4,3.3
						c0,1.4,0.5,2.5,1.2,3.6c0.4,0.5,0.8,1.1,1.2,1.6c0.2,0.3,0.5,0.6,0.7,1c0.8,1,1.5,2.1,1.8,3.4c0.1,0.3,0.2,0.6,0.3,0.9
						c0.1,0.4,0.3,0.4,0.6,0.1c0.5-0.6,0.8-1.2,0.5-2c-0.2-0.4-0.2-0.9,0-1.3c0.2-0.6,0-1.1-0.4-1.5c-0.5-0.5-0.6-1.1-0.5-1.7
						c0.1-0.3,0-0.6-0.1-0.9c-0.1-0.3-0.3-0.6-0.3-0.9c-0.1-0.6-0.1-1.3,0.5-1.7c0.4-0.3,0.7-0.6,1-1.1c0.4-0.7,1.1-0.8,1.8-0.4
						c0.5,0.3,0.9,0.3,1.4,0.2c0.8-0.1,1.5,0,2,0.7c0.3,0.4,0.7,0.5,1.2,0.4c0.1,0,0.2-0.1,0.3-0.1c0.5-0.1,0.9-0.2,1.4,0.1
						c0.2,0.1,0.5,0.3,0.7,0.5c0.6,0.5,1.2,0.8,2,0.5c0.6-0.2,1.2,0,1.8,0.2c0.1,0,0.1,0.1,0.2,0.1c0.7,0.4,1.3,0.4,2,0
						c0.5-0.3,1.1-0.3,1.8-0.2c0.4,0.1,0.9,0.1,1.3,0.1c0.4,0,0.7-0.1,1-0.3c0.7-0.6,1.6-0.7,2.4-0.8c0.6,0,1.1-0.3,1.6-0.7
						c0.3-0.3,0.7-0.5,1.1-0.5c0.3-0.1,0.7-0.2,1-0.3c0.4-0.1,0.7-0.3,0.9-0.6c0.4-0.6,0.9-0.9,1.6-1.1c0.6-0.1,1-0.5,1.3-1.1
						c0.2-0.4,0.5-0.7,0.8-0.9c0.5-0.3,0.9-0.8,1.1-1.3c0.1-0.3,0.2-0.5,0.4-0.8c0.1-0.2,0.3-0.4,0.6-0.4c0.4,0.1,0.7,0.4,0.9,0.8
						c0.1,0.4,0.2,0.9,0.1,1.3c-0.1,1-0.6,1.8-1.1,2.6c-0.7,1.1-1.6,2.1-2.7,2.8c-0.7,0.5-1.5,1-2.2,1.4c-1.1,0.6-2.3,1.3-3.6,1.7
						c-0.4,0.1-0.7,0.3-1,0.5c-0.5,0.2-1,0.5-1.5,0.7c-1.5,0.6-3,1.4-4.3,2.3c-0.6,0.4-1.1,0.8-1.6,1.4c-0.7,0.9-1,1.8-0.6,2.9
						c0.3,1,1,1.8,1.8,2.3c0.8,0.6,1.6,1,2.4,1.5c0.6,0.3,1.2,0.7,1.7,1.2c1.4,1.3,1.5,3.7,0.3,5.3c-0.2,0.2-0.3,0.4-0.5,0.6
						c-0.1,0.1-0.1,0.2-0.1,0.3c0.1,0,0.2,0.1,0.3,0c0.3-0.2,0.7-0.3,1-0.6c0.3-0.3,0.6-0.7,0.9-1c0.3-0.3,0.5-0.7,0.5-1.2
						c0-0.5,0-1.1,0.2-1.6c0.2-0.4,0.1-0.8-0.1-1.2c-0.2-0.2-0.3-0.5-0.4-0.7c-0.1-0.1-0.1-0.3-0.1-0.4c0-0.6-0.3-0.8-0.7-1.1
						c-0.5-0.2-0.9-0.6-1.1-1.1c-0.1-0.4-0.3-0.9-0.5-1.3c-0.4-0.7-0.1-1.5,0.5-2.1c0.3-0.2,0.5-0.5,0.7-0.8
						c0.2-0.3,0.5-0.5,0.8-0.6c0.3-0.1,0.7-0.2,1-0.2c0.4,0,0.8-0.2,1.1-0.5c0.5-0.6,1.1-0.8,1.8-0.5c0.8,0.2,1.4,0,1.9-0.5
						c0.4-0.5,1-0.8,1.6-0.9c0.9-0.2,1.5-0.6,1.9-1.4c0.4-0.8,0.9-1.3,1.7-1.6c0.4-0.2,0.6-0.4,0.8-0.7c0.3-0.6,0.6-1.1,0.8-1.8
						c0.1-0.4,0.3-0.7,0.6-1c0.3-0.3,0.7-0.5,1-0.7c0.5-0.3,0.8-0.7,0.8-1.4c0-0.8,0.2-1.5,0.9-2c0.1-0.1,0.3-0.2,0.4-0.4
						c0.2-0.3,0.4-0.6,0.3-1c-0.1-0.6,0.2-1,0.8-1.2c0.4-0.1,0.9,0.2,1,0.7c0.1,0.3,0.1,0.6,0.1,0.9c0,0.4,0.2,0.6,0.5,0.8
						c0.8,0.3,1.1,0.8,1,1.6c-0.1,0.7,0.2,1.1,0.7,1.5c0.1,0,0.2,0.1,0.2,0.2c0.3,0.2,0.6,0.5,0.7,0.9c0.1,0.4,0.2,0.7,0.2,1.1
						c0.1,0.6,0.3,1,0.8,1.2c0.1,0.1,0.3,0.1,0.4,0.2c0.4,0.1,0.6,0.4,0.7,0.8c0.1,0.2,0.1,0.4,0.2,0.6c0.1,0.5,0.3,0.8,0.8,0.9
						c0.6,0.1,1,0.5,1.3,1.1c0.2,0.4,0.4,0.6,0.9,0.7c0.8,0.1,1.5,0.3,2,1c0.3,0.4,0.7,0.6,1.3,0.4c0.1,0,0.3-0.1,0.4-0.1
						c0.5-0.2,1,0,1.4,0.4c0.5,0.6,1.1,0.8,1.8,0.8c0.8,0,1.5,0.3,1.8,1.1c0.1,0.4,0.4,0.7,0.7,0.9c0.8,0.7,1,1.9-0.1,2.7
						c-0.2,0.2-0.4,0.4-0.5,0.7c-0.1,0.6-0.4,1.2-0.9,1.5c-0.4,0.3-0.5,0.7-0.4,1.1c0.1,0.5,0.1,1-0.1,1.5c-0.2,0.4-0.1,0.9,0.2,1.2
						c0.3,0.3,0.6,0.7,0.7,1.2c0.1,0.4,0.3,0.6,0.6,0.8c0.4,0.3,0.8,0.6,1.2,0.8c0,0,0.1,0.1,0.1,0.1c0.1,0,0.2,0,0.3,0.1
						c0-0.1-0.1-0.2-0.1-0.2c-0.2-0.2-0.4-0.3-0.5-0.5c-1.1-1.5-1.3-2.8-0.1-4.5c0.7-1,1.6-1.8,2.7-2.3c0.3-0.1,0.5-0.3,0.7-0.5
						c0.8-0.5,1.3-1.2,1.8-1.9c0.4-0.7,0.4-1.4,0.4-2.2c0-0.6-0.2-1.1-0.5-1.5c-0.8-1.1-1.8-1.9-3-2.5c-1.2-0.5-2.4-1-3.6-1.5
						c-1.2-0.6-2.5-1.2-3.7-1.8c-0.8-0.4-1.5-1-2.3-1.5c-1.2-0.7-2.1-1.6-2.9-2.7c-0.6-0.9-1.2-1.9-1.5-2.9
						c-0.3-0.7-0.2-1.4-0.1-2.2c0.1-0.5,0.4-0.7,0.9-0.3c0.2,0.1,0.3,0.3,0.4,0.5c0.2,0.2,0.4,0.5,0.6,0.7c0.5,0.3,0.7,0.8,0.9,1.3
						c0.1,0.4,0.4,0.8,0.8,0.9c0.6,0.2,1.1,0.6,1.5,1.1c0.3,0.3,0.6,0.6,1,0.6c0.8,0.1,1.4,0.5,1.9,1c0.2,0.2,0.5,0.4,0.8,0.4
						c0.8,0,1.4,0.3,2.1,0.7c0.4,0.3,0.8,0.4,1.3,0.3c0.6-0.1,1.2,0,1.7,0.4c0.5,0.4,1,0.5,1.6,0.4c0.7-0.2,1.4-0.1,2,0.1
						c0.5,0.2,1,0.2,1.5-0.1c0.3-0.2,0.6-0.2,0.9-0.2c0.4,0,0.8,0.1,1.2,0.2c0.4,0.1,0.7,0,1-0.2c0.4-0.3,0.8-0.4,1.4-0.4
						c0.5,0,1,0.1,1.4-0.2c0.4-0.3,0.8-0.4,1.3-0.2c0.4,0.1,0.7,0.1,1-0.3c0.3-0.4,0.8-0.5,1.3-0.3c0.6,0.2,1,0.1,1.5-0.3
						c0.2-0.2,0.5-0.4,0.8-0.3c0.3,0.1,0.7,0.2,1,0.3c0.7,0.3,1.1,1.3,0.8,2c-0.2,0.5-0.2,1,0,1.4c0.2,0.3,0.2,0.7,0.1,1
						c-0.1,0.2-0.2,0.5-0.4,0.7c-0.3,0.4-0.3,0.8-0.1,1.3c0.3,0.6,0.4,1.2,0.2,1.9c-0.2,0.5-0.1,1.1,0.2,1.6c0.3,0.5,0.5,1,0.4,1.6
						c0,0.2,0,0.4,0,0.5c0.1,0.3,0.2,0.5,0.3,0.8c0,0.1,0.2,0.1,0.3,0.1c0.1,0,0.1-0.2,0.1-0.2c0-0.1,0-0.3,0-0.5
						c0-0.2-0.1-0.4,0-0.5c0.2-0.8,0.3-1.6,0.6-2.3c0.6-1.6,1.5-3.1,2.4-4.6C103.6,100.1,104.3,98.5,104.2,96.7z M80.2,43.9
						c-0.1-0.7-0.1-1.1-0.1-1.6c-0.1-0.9-0.2-1.8-0.3-2.7c-0.2-1.2-0.6-2.4-0.9-3.6c-0.3-0.9-0.6-1.8-0.9-2.7
						c-0.3-0.9-1.1-1.6-1.4-2.5c0,0,0,0,0-0.1c-0.4-0.5-0.7-0.9-1.1-1.4c-0.8-1.1-1.6-2.3-2.6-3.2c-0.5-0.5-1.1-0.9-1.6-1.4
						c-1.1-1-2.4-1.5-3.8-2c-0.8-0.3-1.7-0.4-2.5-0.6c-1.5-0.4-3.1-0.5-4.7-0.5c-0.4,0-0.8,0-1.1,0c-0.3,0-0.5-0.1-0.8-0.1
						c-0.3,0-0.6-0.1-0.9-0.1c-0.8,0-1.5,0.1-2.3,0.2c-0.8,0.1-1.6,0.3-2.4,0.6c-0.6,0.2-1.1,0.4-1.7,0.6c-0.9,0.3-1.9,0.6-2.8,1
						c-1.2,0.5-2.3,1.4-3.3,2.3c-0.5,0.4-1,0.8-1.2,1.4c-0.1,0.2-0.2,0.3-0.4,0.4c-0.6,0.5-1.1,1-1.5,1.7c-0.7,0.9-1.4,1.9-2,2.9
						c-0.5,0.8-0.8,1.7-1.1,2.5c-0.8,1.8-1.1,3.6-1.3,5.6c0,0.5,0,1.1-0.1,1.6c-0.2,1,0,1.9,0.1,2.9c0.1,1,0.3,2,0.4,3
						c0.2,1.3,0.5,2.7,1,4c0.5,1.2,0.9,2.5,1.4,3.7c0.3,0.7,0.7,1.5,1.1,2.2c0.4,0.7,0.8,1.3,1.3,2c0.9,1.4,1.9,2.9,2.6,4.4
						c0,0.1,0.1,0.1,0.1,0.2c0.2,0.3,0.3,0.3,0.6,0.1c0.1-0.1,0.1-0.2,0.2-0.2c0.2-0.2,0.4-0.5,0.6-0.6c1.1-0.7,2.2-0.9,3.4-0.5
						c1.4,0.5,2.6,1.2,3.7,2.2c0.7,0.6,1.3,1.3,2,1.9c0.1,0.1,0.3,0.2,0.5,0.3c0.6,0.3,1.2,0.3,1.8,0.3c0.8,0,1.5-0.2,2.1-0.7
						c0.5-0.3,0.8-0.7,1.2-1.1c0.8-0.8,1.6-1.6,2.4-2.4c0.9-0.8,2-1.4,3.3-1.3c1.4,0.1,2.6,0.8,3.3,2.1c0.2,0.5,0.5,0.5,0.8,0
						c0.2-0.2,0.3-0.5,0.5-0.7c0.8-1,1.5-1.9,2.3-2.9c0.8-1.1,1.6-2.1,2.2-3.4c0.3-0.8,0.7-1.5,1.1-2.3c0.5-1,1-2.1,1.4-3.1
						c0.2-0.5,0.4-1.1,0.5-1.6c0.3-1.4,0.8-2.7,0.9-4.2C80,45.6,80.1,44.7,80.2,43.9z M25.7,53.3c0,0.3,0,0.7,0,1
						c0,0.9,0.1,1.7,0.2,2.6c0,0.4,0,0.8,0.1,1.2c0.4,1.4,0.8,2.9,1.3,4.3c0.6,1.7,1.4,3.4,2.6,4.8c0.7,0.8,1.4,1.7,2.3,2.3
						c0.8,0.5,1.5,1.1,2.4,1.4c1.4,0.5,2.8,0.8,4.3,0.8c0.2,0,0.3,0,0.5,0c0.5-0.1,1.1-0.2,1.6-0.3c1.2-0.1,2.2-0.6,3.1-1.4
						c0.2-0.2,0.3-0.4,0.4-0.7c0.1-0.8,0.2-1.6,0.3-2.4c0-0.2,0.1-0.5,0-0.7c-0.2-0.6-0.4-1.2-0.7-1.8C43,62.6,42,60.8,40.9,59
						c-0.6-1-1.2-2-1.6-3.1c-0.3-0.7-0.6-1.5-0.9-2.2c-0.6-1.3-0.9-2.6-1.2-3.9c-0.2-1.3-0.5-2.6-0.6-3.9c-0.2-1.1-0.3-2.3-0.2-3.4
						c0.1-1.1,0.2-2.3,0.4-3.4c0.1-0.7,0.2-1.5,0.5-2.2c0.3-1,0.7-2,1.1-3c0.2-0.4,0.4-0.8,0.6-1.2c0.2-0.4,0.1-0.6-0.2-0.7
						c-0.6-0.2-1.1-0.3-1.7-0.4c-0.4-0.1-0.8-0.1-1,0.3c-0.5,0.6-1,1.1-1.4,1.7c-0.5,0.7-1,1.5-1.5,2.2c-0.4,0.6-0.9,1.2-1.3,1.8
						c-0.9,1.5-1.8,3.1-2.7,4.7c-0.9,1.6-1.5,3.3-2.3,5c-0.3,0.7-0.3,1.4-0.5,2.2C25.9,50.7,25.7,52,25.7,53.3z M78.9,71.7
						C78.9,71.7,78.9,71.6,78.9,71.7c0.5-0.1,1.1,0,1.6-0.1c0.5,0,1-0.1,1.4-0.3c0.6-0.2,1.2-0.4,1.8-0.7c0.4-0.2,0.7-0.4,1-0.6
						c0.4-0.3,0.7-0.7,1.1-1.1c1.3-1.3,2.3-2.8,3.1-4.4c0.9-1.7,1.5-3.4,1.8-5.3c0.3-1.6,0.5-3.1,0.4-4.7c0-0.3-0.1-0.6-0.1-0.9
						c-0.1-0.7-0.1-1.4-0.2-2.1c0-0.3-0.2-0.5-0.3-0.7c-0.1-0.1-0.1-0.2-0.1-0.4c0-0.3,0.1-0.6,0-0.9c-0.3-1.1-0.7-2.2-1.1-3.3
						c-0.3-0.9-0.6-1.8-1-2.6c-0.7-1.4-1.4-2.8-2.3-4.1c-1.1-1.6-2.2-3.2-3.2-4.9c-0.3-0.4-0.6-0.8-0.9-1.2c-0.4-0.5-0.7-1-1.1-1.6
						c-0.2-0.3-0.5-0.4-0.8-0.3c-0.5,0.1-0.9,0.2-1.4,0.4c-0.5,0.2-0.6,0.4-0.4,0.8c0.5,1,0.9,1.9,1.2,3c0.4,1.2,0.7,2.4,1,3.6
						c0.2,1.1,0.4,2.1,0.5,3.2c0.1,0.9,0.1,1.8,0,2.7c-0.1,1.3-0.4,2.5-0.7,3.7c-0.3,1.5-0.7,3-1.3,4.4c-0.6,1.5-1.3,2.9-2,4.4
						c-0.7,1.4-1.5,2.7-2.5,3.9c-1.1,1.4-2.1,2.9-3.3,4.1c-0.3,0.3-0.4,0.7-0.3,1.1c0.1,0.3,0.1,0.7,0.1,1c0.1,0.3,0.1,0.6,0.3,0.9
						c0.3,0.5,0.7,0.9,1.1,1.2c1,0.7,2.1,1.3,3.4,1.4C76.8,71.5,77.8,71.6,78.9,71.7z M31,83.3C31,83.3,31,83.3,31,83.3
						c0.3,0.1,0.5,0.1,0.8,0.1c0.1,0,0.3-0.1,0.3-0.1c0-0.1,0-0.3-0.1-0.4c0-0.1-0.1-0.1-0.2-0.2c-1.3-1.3-2.7-2.6-4-4
						c-1-1-1.8-2.1-2.7-3.1c-1-1.2-1.9-2.3-2.9-3.6c-0.7-0.9-1.3-1.7-1.9-2.7c-0.7-1.1-1.2-2.2-1.8-3.4c0-0.1-0.1-0.1-0.1-0.2
						c0-0.1-0.1-0.1-0.2-0.1c-0.1,0-0.1,0.1-0.1,0.2c-0.1,0.4-0.2,0.9-0.2,1.3c0.1,1.1,0.2,2.3,0.4,3.4c0.2,1.3,0.5,2.6,0.9,3.9
						c0.4,1.1,0.7,2.3,1.5,3.2c0.1,0.1,0.1,0.2,0.1,0.3c0.2,0.7,0.8,1.2,1.4,1.7c1.9,1.5,4.1,2.5,6.1,3.8c0.2,0.1,0.5,0.2,0.8,0.1
						C29.9,83.4,30.4,83.4,31,83.3z M99.5,64.5C99.5,64.5,99.5,64.5,99.5,64.5C99.5,64.5,99.5,64.5,99.5,64.5
						c-0.1-0.3-0.1-0.5-0.1-0.6c-0.1,0.1-0.3,0.3-0.4,0.4c-0.6,1.1-1.1,2.2-1.6,3.3c-0.7,1.5-1.6,2.9-2.6,4.3
						c-0.8,1.2-1.7,2.4-2.6,3.6c-0.8,1.1-1.6,2.1-2.5,3.1c-0.1,0.2-0.3,0.3-0.4,0.5c-0.7,0.7-1.3,1.4-2,2.1c-0.3,0.3-0.7,0.7-1,1
						c-0.1,0.1-0.1,0.3-0.2,0.4c0.1,0.1,0.3,0.2,0.4,0.1c0.7-0.1,1.4-0.2,2-0.3c1-0.2,2-0.3,3-0.8c1-0.5,1.9-0.9,2.9-1.3
						c0.3-0.2,0.6-0.4,0.8-0.7c0.5-0.7,0.8-1.4,1.1-2.2c0.4-1.3,0.9-2.5,1.3-3.8c0.3-1.1,0.6-2.2,0.8-3.3c0.4-1.6,0.7-3.2,0.8-4.8
						C99.4,65.2,99.4,64.9,99.5,64.5z M109.8,58.1c-1.5-0.1-2.3,0.3-3.2,1c-1,0.8-2.1,1.6-2.9,2.7c-0.5,0.7-1,1.2-1.5,1.9
						c-0.3,0.4-0.3,0.8-0.2,1.3c0.2,0.9,0.4,1.8,0.7,2.7c0.1,0.5,0.2,1,0.3,1.5c0.1,0.4,0.4,0.5,0.6,0.1c0.3-0.4,0.5-0.8,0.6-1.2
						c0.1-0.6,0.4-1.1,1-1.4c0.3-0.1,0.4-0.4,0.4-0.7c0.1-0.6,0.3-1.1,0.8-1.3c0.4-0.2,0.6-0.5,0.7-1c0.1-0.7,0.5-1.1,1.1-1.2
						c0.5-0.1,0.9-0.3,1.1-0.8c0.2-0.4,0.5-0.5,0.9-0.4c0.1,0,0.3,0.1,0.4,0.2c0.3,0.1,0.6,0.2,1,0.1c0.4-0.1,0.7,0,1,0.3
						c0.2,0.2,0.3,0.4,0.1,0.6c-0.1,0.2-0.3,0.2-0.5,0.1c-0.2-0.1-0.5-0.1-0.7,0c-0.5,0.2-0.7,0.5-0.7,1.2c0,0.5,0.4,1,0.8,1.1
						c0.5,0.1,1.1,0.1,1.6-0.2c0.7-0.5,1.2-1.2,1.2-2.2c0-0.8-0.1-1.7-0.7-2.3C112.9,58.8,111.5,58,109.8,58.1z M7.7,58.9
						c-1.2,0-2.2,0.1-3.2,0.7c-0.3,0.2-0.6,0.4-0.9,0.6c-0.5,0.3-0.8,0.7-1,1.3c-0.4,1.8,0.3,3.2,2.1,3.8c0.3,0.1,0.7,0.1,1.1,0
						c0.2,0,0.5-0.2,0.6-0.4c0.3-0.5,0.3-1.1,0.1-1.6c-0.1-0.4-0.5-0.6-0.9-0.6c-0.4,0-0.8,0.1-1,0.5c-0.1,0.1-0.1,0.2-0.2,0.3
						c-0.2,0.2-0.4,0.2-0.5-0.1c-0.1-0.1-0.1-0.3-0.1-0.4c0-0.3,0.2-0.6,0.4-0.8c0.5-0.4,1.1-0.6,1.8-0.5c0.2,0,0.5,0,0.8,0
						c0.9-0.2,1.4,0,1.9,0.8c0.2,0.4,0.5,0.7,0.9,0.8c0.9,0.3,1.3,0.9,1.3,1.8c0,0.4,0.2,0.7,0.5,0.9c0.1,0.1,0.2,0.2,0.3,0.3
						c0.5,0.3,0.8,0.8,0.9,1.4c0.1,0.4,0.1,0.7,0.4,1.1c0.2,0.3,0.4,0.6,0.6,1c0.1,0.1,0.2,0.4,0.3,0.4c0.2,0,0.2-0.3,0.3-0.5
						c0.4-1.7,0.7-3.4,1.3-5c0.1-0.4,0.1-0.7-0.2-1c-0.1-0.1-0.2-0.3-0.4-0.4c-0.7-0.9-1.5-1.7-2.4-2.4C11,59.6,9.5,58.8,7.7,58.9z
						 M60,115.6c0,0.1,0,0.2,0.1,0.2c0.1,0,0.2,0,0.2,0c0.1-0.1,0.3-0.2,0.4-0.3c0.9-0.9,1.9-1.7,3-2.5c1.4-1,2.8-1.7,4.4-2.4
						c1.5-0.7,3.1-1.4,4.7-2.1c0.9-0.4,1.8-0.9,2.8-1.1c0,0,0.1,0,0.1-0.1c0.1-0.1,0.2-0.2,0.2-0.3c0-0.1-0.1-0.3-0.3-0.3
						c-0.1-0.1-0.3-0.1-0.5-0.1c-0.9-0.1-1.8-0.3-2.4-1c-0.3-0.3-0.6-0.3-1-0.2c-0.2,0.1-0.4,0.1-0.6,0.1c-0.6-0.1-1.1,0-1.6,0.3
						c-0.1,0.1-0.3,0.1-0.4,0.1c-2.7,0.4-4.7,1.8-6.3,3.9c-1.2,1.6-2,3.3-2.7,5.1C60.2,115.1,60.1,115.3,60,115.6z M57.4,115.5
						c0-0.1,0-0.1,0-0.2c-0.3-0.8-0.6-1.6-1-2.3c-0.8-1.3-1.6-2.6-2.7-3.7c-0.8-0.9-1.7-1.6-2.6-2.2c-0.6-0.4-1.2-0.8-1.9-0.9
						c-0.6-0.1-1.2-0.3-1.7-0.7c-0.3-0.2-0.7-0.2-1-0.1c-0.6,0.3-1.2,0.4-1.9,0.1c-0.3-0.1-0.6,0-0.8,0.2c-0.5,0.4-1,0.8-1.6,1
						c-0.3,0.1-0.3,0.3-0.1,0.5c0.2,0.2,0.5,0.3,0.8,0.4c0.9,0.4,1.8,0.8,2.7,1.2c0.5,0.2,1,0.5,1.6,0.8c1.7,0.6,3.2,1.6,4.8,2.5
						c0.8,0.5,1.6,1.1,2.4,1.6c0.8,0.6,1.6,1.2,2.3,1.9c0.1,0.1,0.3,0.2,0.4,0.3C57.3,115.8,57.4,115.8,57.4,115.5z M59.3,12.2
						C59.3,12.2,59.3,12.2,59.3,12.2c-0.2,0-0.4,0-0.5,0c-1.2,0.1-2,0.6-2.4,1.8c-0.8,2-1.1,4.1-1.4,6.2c-0.1,0.6,0.1,0.8,0.7,0.7
						c0.5-0.1,1-0.2,1.5-0.2c0.5,0,1,0,1.4,0.1c0.5,0.1,1,0.2,1.6,0.2c0.5,0,1,0.1,1.5,0.2c0.5,0.1,0.6-0.1,0.6-0.6
						c0-0.1,0-0.1-0.1-0.2c-0.1-0.7-0.3-1.3-0.4-2c-0.1-0.8-0.2-1.6-0.4-2.4c-0.2-0.9-0.3-1.7-0.6-2.6
						C60.6,12.6,60.4,12.1,59.3,12.2C59.3,12.2,59.3,12.2,59.3,12.2z M38,20.9c0-0.1,0-0.2,0-0.2c0-0.7-0.3-0.9-0.9-0.9
						c-0.3,0-0.6,0-0.9-0.1c-0.7-0.1-1.3-0.2-2-0.2c-0.7,0-1.4,0.1-2,0.1c-0.6,0-1.1,0.3-1.4,0.8c-0.4,0.9-0.8,1.7-1.2,2.6
						c-0.3,0.6-0.2,1.2-0.3,1.9c-0.1,0.8,0,1.6,0.1,2.4c0,0.2,0.1,0.4,0.2,0.6c0.2,0.5,0.7,0.6,1.1,0.3c0.3-0.3,0.7-0.5,1.1-0.6
						c0.2,0,0.4-0.1,0.6-0.2c0.4-0.1,0.7-0.4,0.8-0.8c0.1-0.2,0.1-0.4,0.2-0.6c0.2-0.8,0.7-1.2,1.4-1.4c0.6-0.2,1-0.5,1.1-1.2
						c0.1-0.7,0.6-1.2,1.3-1.4C37.9,21.9,38,21.6,38,20.9z M88.1,26.9C88.1,26.9,88.1,26.9,88.1,26.9c0-0.7-0.1-1.4-0.2-2.2
						c-0.1-1.4-0.7-2.7-1.2-4c-0.2-0.6-0.6-0.9-1.3-0.8c-0.8,0.1-1.7,0.1-2.5,0c-1.2-0.1-2.4,0-3.6,0c-0.3,0-0.5,0.3-0.3,0.6
						c0.1,0.2,0.2,0.3,0.3,0.4c0.2,0.1,0.4,0.2,0.6,0.3c0.6,0.3,1,0.9,1,1.6c0,0.9,0.1,1,1,1.1c1.1,0.2,1.5,0.5,1.7,1.6
						c0,0.1,0.1,0.3,0.1,0.4c0.1,0.7,0.4,1,1.2,1.1c0.7,0.1,1.3,0.4,1.6,1.1c0,0,0,0.1,0.1,0.1c0.2,0.3,0.3,0.4,0.7,0.2
						c0.3-0.2,0.6-0.3,0.9-0.5c0.1-0.1,0.3-0.3,0.3-0.5C88.1,27.2,88.1,27.1,88.1,26.9z M83.4,91.7c1.5,0,3-0.3,4.5-0.6
						c0.6-0.1,1-0.4,1.3-0.8c0.5-0.6,0.9-1.4,1.4-1.9c1-1,1.6-2.2,2.3-3.4c0.6-1,1.1-2,1.6-3c0.1-0.1,0.1-0.3,0.1-0.4
						c0.1-0.2-0.1-0.3-0.3-0.3c-0.1,0-0.2,0.1-0.3,0.1c-0.5,0.2-0.9,0.5-1.4,0.7c-0.7,0.3-1.4,0.6-2.1,0.9c-0.4,0.1-0.6,0.3-0.8,0.7
						c-0.1,0.2-0.3,0.4-0.5,0.6c-0.2,0.2-0.4,0.4-0.5,0.6c-0.6,0.9-1.2,1.9-1.9,2.7c-1,1.1-2.1,2.2-3.2,3.3
						c-0.1,0.1-0.2,0.2-0.3,0.3c-0.1,0.1-0.2,0.3-0.1,0.4C83.1,91.6,83.3,91.6,83.4,91.7z M59.3,6.3c-0.6,0.1-1.2,0.1-1.7,0.3
						c-1.4,0.4-2.4,1.3-2.8,2.7c-0.4,1.2-0.1,2.4,0.5,3.5c0.2,0.4,0.5,0.4,0.7,0c0.3-0.6,0.8-0.9,1.4-1.1c0.5-0.2,1-0.3,1.5-0.4
						c1.2-0.2,2.2,0.1,2.7,1.2c0,0,0,0.1,0,0.1c0.2,0.4,0.4,0.4,0.7,0.1c0.4-0.4,0.7-0.9,0.8-1.4c0.1-0.6,0.1-1.1,0-1.7
						c-0.1-1.3-1-2.1-2-2.8C60.5,6.4,59.9,6.4,59.3,6.3z M27.6,91.3C27.6,91.3,27.6,91.3,27.6,91.3c0.1,0,0.2,0,0.3,0
						c0.3,0,0.4-0.2,0.2-0.4c-0.1-0.1-0.1-0.1-0.2-0.2c-0.3-0.4-0.6-0.7-0.9-1.1c-0.3-0.3-0.5-0.7-0.8-1c-0.9-1-1.7-2.1-2.3-3.2
						c-0.8-1.4-1.6-2.9-2.3-4.3c-0.1-0.1-0.1-0.3-0.2-0.4c-0.1-0.1-0.2-0.2-0.3-0.3c-0.1,0.1-0.2,0.2-0.2,0.4
						c-0.1,0.3-0.1,0.6-0.1,0.9c-0.1,0.6-0.1,1.2-0.2,1.9c-0.1,0.9-0.2,1.9-0.2,2.8c0,0.4-0.1,0.8-0.1,1.2c0,0.1,0,0.2,0,0.4
						c0.2,0.8,0.7,1.5,1.1,2.2c0.1,0.3,0.4,0.4,0.7,0.4c1,0.2,2,0.3,3,0.5C25.9,91.1,26.7,91.2,27.6,91.3z M33.3,92.1
						C33.3,92.1,33.3,92,33.3,92.1c0.1-0.1,0.1,0,0.2-0.1c0.2,0,0.4,0,0.4-0.2c0-0.2-0.1-0.3-0.2-0.5c-0.1-0.2-0.3-0.2-0.4-0.4
						c-0.6-0.7-1.3-1.4-1.9-2.2c-1.1-1.3-2.1-2.6-2.9-4.1c-0.1-0.2-0.3-0.4-0.5-0.6c-0.4-0.3-0.9-0.5-1.3-0.7c-1.1-0.5-2-1.1-3-1.7
						c-0.2-0.1-0.4-0.2-0.7-0.2c-0.2,0.3,0,0.5,0.1,0.8c0.4,0.7,0.8,1.5,1.3,2.2c0.7,1.1,1.5,2.2,2.3,3.2c0.9,1.2,1.9,2.3,2.8,3.4
						c0.2,0.3,0.5,0.5,0.8,0.5C31.2,91.8,32.2,91.9,33.3,92.1z M97.8,85c-0.1-0.4-0.1-0.8-0.2-1.1c-0.2-0.9-0.5-1.9-0.7-2.8
						c-0.1-0.2-0.1-0.4-0.1-0.6c0-0.1-0.2-0.3-0.2-0.3c-0.1,0-0.2,0.1-0.3,0.2c-0.1,0-0.1,0.1-0.1,0.2c-0.2,0.5-0.4,1-0.7,1.4
						c-0.3,0.5-0.5,1-0.8,1.5c-0.4,0.8-0.8,1.6-1.3,2.5c-0.4,0.6-0.7,1.2-1.1,1.8c-0.5,0.7-1.1,1.4-1.7,2.1
						c-0.1,0.1-0.2,0.4-0.2,0.5c0.1,0.2,0.3,0.1,0.5,0.1c0.7-0.1,1.4-0.2,2.1-0.3c0.7-0.1,1.4-0.3,2.1-0.4c0.5-0.1,0.8-0.3,1-0.7
						c0.5-1,1.1-2,1.6-3.1C97.6,85.7,97.8,85.4,97.8,85z M82.1,99.4C82.1,99.4,82.1,99.4,82.1,99.4c-0.1,0.1-0.2,0-0.3,0.1
						c-0.5,0.1-1.1,0.1-1.6,0.2c-0.1,0-0.3,0.1-0.4,0.1c-0.6,0.3-1.2,0.7-1.8,1.1c-0.1,0.1-0.3,0.3-0.3,0.4c0,0.1,0.2,0.2,0.3,0.3
						c0.5,0.2,1.1,0.4,1.6,0.7c1.2,0.5,2.2,1.2,3.1,2c0.1,0.1,0.2,0.2,0.3,0.2c0.2,0.1,0.3,0.1,0.5-0.1c0.1-0.2,0.3-0.4,0.5-0.6
						c1.5-1,3.1-2.1,4.5-3.3c0.3-0.3,0.6-0.6,0.9-0.9c0.2-0.3,0.1-0.5-0.2-0.6c-0.4,0-0.7,0-1.1,0.3c-0.3,0.3-0.6,0.4-1,0.3
						c-0.3-0.1-0.7-0.2-1.1-0.2c-0.4-0.1-0.8-0.1-1.2,0.2c-0.6,0.4-1.1,0.4-1.8,0.1C82.9,99.5,82.5,99.5,82.1,99.4z M39.7,100.8
						c-0.1-0.2-0.2-0.3-0.3-0.4c-0.3-0.2-0.6-0.4-0.9-0.6c-0.4-0.3-0.7-0.3-1.2-0.3c-0.3,0-0.7,0-1,0c-0.8-0.2-1.6-0.2-2.4,0.2
						c-0.7,0.3-1.3,0.2-2-0.1c-0.7-0.4-1.4-0.5-2.1-0.3c-0.9,0.2-1.6-0.1-2.2-0.7c-0.1-0.2-0.3-0.3-0.5-0.4
						c-0.3-0.2-0.5-0.1-0.6,0.1c-0.1,0.2,0,0.4,0.2,0.5c0.5,0.5,1.1,0.9,1.6,1.4c0.9,0.7,1.8,1.2,2.8,1.7c0.9,0.5,1.9,1.1,2.7,1.8
						c0.3,0.2,0.5,0.2,0.8,0c1.1-0.6,2.1-1.2,3.2-1.8c0.5-0.3,1-0.5,1.6-0.7C39.4,101,39.6,100.9,39.7,100.8z M77.7,31.2
						c0.6-0.2,1.1-0.3,1.6-0.5c0.2-0.1,0.3-0.3,0.2-0.5c-0.1-0.2-0.2-0.5-0.4-0.7c-0.9-1.3-1.8-2.7-2.7-4c-0.3-0.4-0.5-0.8-0.7-1.3
						c-0.3-0.9-0.6-1.9-0.8-2.8c-0.1-0.3-0.1-0.6-0.2-0.8c-0.1-0.3-0.3-0.4-0.6-0.4c-0.1,0-0.2,0.1-0.4,0.1
						c-0.4,0.1-0.4,0.3-0.3,0.7c0.2,0.5,0.4,1.1,0.6,1.6c0.6,1.4,1.1,2.8,1.4,4.2c0.1,0.4,0.1,0.8,0,1.2c-0.1,0.3,0,0.6,0.2,0.9
						c0.5,0.7,1.1,1.4,1.6,2.1C77.3,31,77.6,31.1,77.7,31.2z M43.8,20.4c0-0.3-0.2-0.4-0.4-0.5c-0.3-0.1-0.5,0-0.6,0.2
						c-0.1,0.1-0.1,0.3-0.2,0.4c-0.2,0.7-0.5,1.4-0.7,2.1c-0.1,0.2-0.1,0.4-0.2,0.7c-0.1,0.6-0.3,1.2-0.7,1.7
						c-0.4,0.6-0.9,1.3-1.4,1.9c-0.8,1-1.5,2-2.3,3c-0.3,0.4-0.2,0.6,0.2,0.8c0.5,0.2,1.1,0.3,1.6,0.5c0.2,0.1,0.4,0,0.6-0.1
						c0.1-0.1,0.2-0.3,0.3-0.4c0.2-0.3,0.5-0.7,0.7-1c0.2-0.3,0.3-0.5,0.4-0.9c0.1-0.8,0.2-1.7,0.4-2.5c0.5-1.8,1.1-3.7,2-5.4
						C43.7,20.8,43.7,20.6,43.8,20.4z M66.7,105.4c0.1,0,0.2,0,0.2,0c0.7-0.2,1.4-0.4,2.1-0.6c0.1,0,0.3-0.2,0.3-0.3
						c0-0.1-0.1-0.3-0.2-0.4c-0.2-0.1-0.5-0.2-0.7-0.2c-0.7-0.1-1.3-0.3-1.6-1c-0.2-0.4-0.4-0.6-0.8-0.7c-0.4-0.1-0.7-0.3-0.9-0.6
						c-0.2-0.3-0.4-0.7-0.5-1c-0.1-0.6-0.4-1-1-1.2c-0.5-0.2-0.9-0.6-1-1.1c-0.1-0.3-0.2-0.7-0.2-1c-0.1-1-0.6-1.2-1.2-1.5
						c-0.2-0.1-0.4,0-0.3,0.3c0,0.2,0.1,0.5,0.2,0.7c0.3,0.8,0.7,1.6,1.1,2.3c0.7,1.2,1.3,2.4,2.1,3.5c0.6,0.9,1.4,1.8,2.3,2.5
						C66.5,105.3,66.7,105.4,66.7,105.4z M50.1,105.6c0.4,0,0.6-0.2,0.8-0.5c0.7-0.9,1.4-1.9,2.1-2.8c1.1-1.4,2.1-3,2.8-4.6
						c0.1-0.2,0.2-0.5,0.3-0.7c0-0.1,0.1-0.3,0-0.4c-0.1-0.1-0.3,0-0.4-0.1c0,0-0.1,0-0.1,0c-0.5,0.3-0.9,0.6-1,1.2
						c0,0.1,0,0.2-0.1,0.3c-0.5,1.2-1,2.3-2.2,2.9c-0.4,0.2-0.7,0.5-0.9,0.9c-0.4,0.7-1,1.3-1.7,1.7c-0.3,0.2-0.7,0.3-1,0.4
						c-0.1,0.1-0.3,0.1-0.4,0.1c-0.2,0.1-0.2,0.4,0,0.6c0.1,0.1,0.2,0.1,0.2,0.1c0.5,0.2,1,0.4,1.5,0.6
						C49.9,105.5,50.1,105.6,50.1,105.6z M50.6,21.4c0,0.5,0.1,0.6,0.6,0.5c0.7-0.2,1.4-0.4,2.1-0.5c0.4-0.1,0.7-0.3,0.8-0.8
						c0-0.3,0.1-0.6,0.1-0.9c0.1-0.6,0.2-1.2,0.4-1.9c0.1-0.5-0.1-0.8-0.6-0.7c-0.3,0-0.7,0.1-1,0.2c-0.6,0.2-1,0.6-1.4,1.1
						C50.9,19.4,50.8,20.4,50.6,21.4z M51.1,92.1c-0.1-0.1-0.1-0.3-0.2-0.4c-0.1,0.1-0.3,0.2-0.4,0.2c0,0-0.1,0.1-0.1,0.1
						c-0.3,0.3-0.5,0.5-0.8,0.8c-0.2,0.2-0.5,0.4-0.6,0.7c-0.5,0.8-1.1,1.4-2,1.6c-0.4,0.1-0.8,0.4-1.1,0.7c-0.4,0.5-0.9,0.9-1.5,1
						c0,0-0.1,0-0.1,0c-0.3,0.2-0.4,0.4-0.1,0.6c0.2,0.2,0.4,0.3,0.6,0.4c0.4,0.2,0.8,0.2,1.2-0.1c0.3-0.2,0.6-0.4,0.9-0.5
						c1.8-1,3.1-2.4,3.9-4.2C50.9,92.8,51,92.4,51.1,92.1z M63.3,17.1c-0.6,0-0.8,0.2-0.7,0.9c0.1,0.9,0.2,1.7,0.2,2.6
						c0,0.6,0.1,0.7,0.7,0.8c0.7,0.1,1.3,0.3,1.9,0.4c0.1,0,0.2,0,0.4,0c0.4,0,0.5-0.1,0.4-0.5c0-0.3-0.1-0.6-0.2-0.8
						c-0.2-0.8-0.5-1.6-0.9-2.4C64.7,17.4,64.1,17,63.3,17.1z M74,97.6C74,97.6,74,97.6,74,97.6c-0.1,0-0.3,0-0.4,0.1
						c-0.3,0.2-0.5,0.4-0.8,0.6c-0.2,0.2-0.2,0.4,0.1,0.6c0.1,0.1,0.2,0.1,0.3,0.2c1,0.5,2,1,3,1.6c0.1,0.1,0.3,0.1,0.4,0.1
						c0.2,0,0.4,0,0.6-0.1c0.6-0.4,1.2-0.9,1.8-1.3c0.2-0.1,0.3-0.3,0.2-0.5c-0.1-0.1-0.2-0.2-0.4-0.3c-0.2,0-0.5,0-0.7,0
						c-0.7,0.1-1.3-0.1-1.8-0.5c-0.2-0.2-0.5-0.3-0.7-0.4C74.9,97.7,74.5,97.7,74,97.6z M71.6,98c0.1,0,0.1,0,0.2,0
						c0.5-0.2,0.9-0.5,1.2-0.9c0.1-0.2,0.1-0.4-0.1-0.5c-0.2-0.1-0.4-0.2-0.6-0.3c-0.8-0.1-1.5-0.4-2-1.1c-0.3-0.3-0.6-0.6-1.1-0.8
						c-0.7-0.2-1.2-0.7-1.4-1.4c-0.1-0.3-0.2-0.5-0.3-0.7c-0.2-0.3-0.5-0.4-0.6-0.3c-0.3,0.2-0.2,0.4-0.1,0.7
						c0.2,0.5,0.4,0.9,0.7,1.4c0.5,1,1.2,1.9,2.1,2.6c0.5,0.4,1.1,0.8,1.6,1.2C71.3,97.9,71.5,98,71.6,98z M40.9,100.2
						c0.1,0,0.3-0.1,0.4-0.1c0.5-0.2,1.1-0.4,1.6-0.7c0.3-0.1,0.6-0.2,0.9-0.4c0.3-0.2,0.3-0.3,0.1-0.6c-0.2-0.2-0.4-0.4-0.6-0.5
						c-0.4-0.4-0.6-0.4-1-0.1c-0.6,0.5-1.4,0.6-2.1,0.6c-0.2,0-0.5,0.1-0.7,0.2c-0.3,0.1-0.4,0.4-0.1,0.7c0.4,0.3,0.8,0.6,1.2,0.9
						C40.6,100.2,40.8,100.2,40.9,100.2z M36.8,91c-0.3,0.1-0.7,0.1-1.1,0.2c-0.1,0-0.3,0.2-0.3,0.4c0,0.1,0.2,0.3,0.3,0.4
						c0.1,0.1,0.3,0,0.4,0c0.6,0,1.1,0,1.7-0.1c0.3,0,0.5,0,0.8-0.1c0.7-0.2,1.4-0.4,2.1-0.7c0.8-0.3,1.5-0.7,2.1-1.2
						c0.2-0.1,0.3-0.3,0.4-0.4c0.1-0.2,0.1-0.3-0.2-0.4c-0.4,0-0.8,0-1,0.3c-0.4,0.5-0.9,0.7-1.6,0.7c-0.5,0-0.9,0.1-1.3,0.5
						c-0.3,0.3-0.7,0.5-1.2,0.4C37.7,91.1,37.3,91.1,36.8,91z M80.2,91.7c0.1,0,0.3,0,0.4,0c0.3-0.1,0.6-0.2,0.8-0.4
						c0.2-0.2,0.1-0.4-0.2-0.5c-0.3,0-0.5,0-0.8,0c-0.5,0.1-0.9,0-1.3-0.3c-0.4-0.2-0.7-0.4-1.2-0.3c-0.2,0-0.3,0-0.5,0
						c-0.6,0-1.1-0.1-1.5-0.5c-0.6-0.6-1.3-0.7-2.1-0.7c-0.2,0-0.3,0.1-0.2,0.3c0.1,0.1,0.2,0.2,0.3,0.3c0.2,0.1,0.4,0.3,0.7,0.4
						c1.1,0.4,2.1,0.9,3.2,1.3C78.6,91.5,79.3,91.7,80.2,91.7z M37,119c0.6,0,1.1-0.2,1.5-0.6c0.2-0.2,0.3-0.3,0.2-0.6
						c-0.3-0.6-0.7-1.2-1.4-1.5c-0.6-0.2-1.2-0.1-1.5,0.4c-0.3,0.5-0.3,1,0,1.5C36.1,118.7,36.4,119,37,119z M79.9,116.3
						c-0.5,0-0.9,0.1-1.3,0.4c-0.4,0.3-0.4,0.8,0,1.2c0.5,0.4,1.1,0.8,1.8,1c0.3,0.1,0.4,0.1,0.6-0.1c0.8-0.7,0.5-2.1-0.5-2.4
						C80.3,116.4,80.1,116.4,79.9,116.3z M75.9,121.3c0.5,0,0.9-0.2,1.3-0.4c0.7-0.4,0.7-0.8,0.1-1.3c-0.1,0-0.1-0.1-0.2-0.1
						c-0.1,0-0.2,0-0.3,0c-0.5,0.4-1,0.8-1.6,1.1c-0.2,0.1-0.1,0.3,0,0.4C75.4,121.1,75.7,121.2,75.9,121.3z M41.4,121.6
						c0.1,0,0.2,0,0.3,0c0.2-0.1,0.3-0.2,0.4-0.3c-0.1-0.1-0.2-0.2-0.3-0.3c-0.3-0.2-0.6-0.4-0.9-0.7c-0.4-0.5-0.8-0.5-1.3-0.1
						c-0.3,0.2-0.3,0.4-0.1,0.7C40.2,121.2,40.7,121.6,41.4,121.6z M98.2,88.7c0-0.4-0.1-0.7-0.1-1.1c0-0.1-0.1-0.3-0.2-0.3
						c-0.1,0-0.2,0.1-0.3,0.2c-0.1,0-0.1,0.1-0.1,0.2c-0.2,0.3-0.4,0.6-0.6,1c-0.4,0.7-0.3,0.9,0.5,0.9
						C98.2,89.6,98.2,89.6,98.2,88.7z M19.7,90.5c0,0.2,0,0.4,0.3,0.4c0.3,0,0.6-0.2,0.6-0.5c0-0.2-0.2-0.5-0.4-0.5
						C19.9,89.9,19.7,90.1,19.7,90.5z"/>
					<path class="st2" d="M104.2,96.7c0.1,1.8-0.6,3.3-1.6,4.8c-1,1.4-1.9,2.9-2.4,4.6c-0.3,0.8-0.4,1.6-0.6,2.3c0,0.2,0,0.4,0,0.5
						c0,0.2,0,0.3,0,0.5c0,0.1-0.1,0.2-0.1,0.2c-0.1,0-0.2,0-0.3-0.1c-0.1-0.2-0.3-0.5-0.3-0.8c-0.1-0.2,0-0.4,0-0.5
						c0-0.6-0.1-1.1-0.4-1.6c-0.3-0.5-0.4-1-0.2-1.6c0.3-0.7,0.2-1.3-0.2-1.9c-0.3-0.4-0.2-0.9,0.1-1.3c0.1-0.2,0.3-0.5,0.4-0.7
						c0.1-0.3,0.1-0.7-0.1-1c-0.3-0.5-0.3-0.9,0-1.4c0.3-0.7-0.1-1.7-0.8-2c-0.3-0.1-0.7-0.2-1-0.3c-0.3-0.1-0.6,0.1-0.8,0.3
						c-0.4,0.4-0.9,0.5-1.5,0.3c-0.5-0.2-0.9-0.1-1.3,0.3c-0.3,0.3-0.6,0.4-1,0.3c-0.5-0.1-0.9-0.1-1.3,0.2c-0.4,0.3-1,0.3-1.4,0.2
						c-0.5-0.1-1,0.1-1.4,0.4c-0.3,0.2-0.6,0.3-1,0.2c-0.4-0.1-0.8-0.2-1.2-0.2c-0.3,0-0.7,0.1-0.9,0.2c-0.5,0.3-1,0.3-1.5,0.1
						c-0.6-0.3-1.3-0.3-2-0.1c-0.6,0.1-1.1,0-1.6-0.4c-0.5-0.4-1.1-0.6-1.7-0.4c-0.4,0.1-0.9,0-1.3-0.3c-0.6-0.4-1.3-0.7-2.1-0.7
						c-0.3,0-0.6-0.2-0.8-0.4c-0.5-0.6-1.1-0.9-1.9-1c-0.4-0.1-0.8-0.3-1-0.6c-0.4-0.5-0.9-0.9-1.5-1.1c-0.4-0.1-0.7-0.4-0.8-0.9
						c-0.1-0.5-0.4-1-0.9-1.3c-0.2-0.2-0.4-0.5-0.6-0.7c-0.1-0.2-0.3-0.4-0.4-0.5c-0.4-0.3-0.8-0.2-0.9,0.3
						c-0.1,0.7-0.2,1.4,0.1,2.2c0.4,1,0.9,2,1.5,2.9c0.8,1.1,1.8,2,2.9,2.7c0.8,0.5,1.5,1.1,2.3,1.5c1.2,0.7,2.4,1.2,3.7,1.8
						c1.2,0.5,2.4,1,3.6,1.5c1.2,0.5,2.2,1.4,3,2.5c0.3,0.5,0.5,1,0.5,1.5c0,0.8,0,1.5-0.4,2.2c-0.5,0.8-1,1.5-1.8,1.9
						c-0.3,0.1-0.5,0.3-0.7,0.5c-1.1,0.5-2,1.3-2.7,2.3c-1.2,1.7-1,3,0.1,4.5c0.1,0.2,0.4,0.3,0.5,0.5c0.1,0.1,0.1,0.1,0.1,0.2
						c-0.1,0-0.2,0-0.3-0.1c0,0-0.1-0.1-0.1-0.1c-0.4-0.3-0.8-0.6-1.2-0.8c-0.3-0.2-0.6-0.5-0.6-0.8c-0.1-0.5-0.3-0.9-0.7-1.2
						c-0.3-0.4-0.4-0.8-0.2-1.2c0.2-0.5,0.2-1,0.1-1.5c-0.1-0.4,0-0.8,0.4-1.1c0.5-0.4,0.8-0.9,0.9-1.5c0.1-0.3,0.2-0.5,0.5-0.7
						c1-0.8,0.9-1.9,0.1-2.7c-0.3-0.3-0.5-0.6-0.7-0.9c-0.3-0.8-1-1.1-1.8-1.1c-0.7,0-1.3-0.2-1.8-0.8c-0.4-0.4-0.8-0.6-1.4-0.4
						c-0.1,0-0.3,0.1-0.4,0.1c-0.5,0.2-1,0-1.3-0.4c-0.5-0.7-1.2-0.9-2-1c-0.5,0-0.7-0.3-0.9-0.7c-0.2-0.6-0.6-0.9-1.3-1.1
						c-0.5-0.1-0.7-0.4-0.8-0.9c0-0.2-0.1-0.4-0.2-0.6c-0.1-0.4-0.3-0.6-0.7-0.8c-0.1-0.1-0.3-0.1-0.4-0.2c-0.6-0.2-0.8-0.6-0.8-1.2
						c0-0.4-0.1-0.7-0.2-1.1c-0.1-0.4-0.4-0.7-0.7-0.9c-0.1-0.1-0.1-0.1-0.2-0.2c-0.6-0.3-0.8-0.8-0.7-1.5c0.1-0.8-0.3-1.4-1-1.6
						c-0.3-0.1-0.5-0.4-0.5-0.8c0-0.3,0-0.6-0.1-0.9c-0.1-0.5-0.6-0.8-1-0.7c-0.6,0.1-0.9,0.6-0.8,1.2c0.1,0.4,0,0.7-0.3,1
						c-0.1,0.1-0.2,0.3-0.4,0.4c-0.7,0.5-0.9,1.2-0.9,2c0,0.6-0.3,1-0.8,1.4c-0.4,0.2-0.7,0.5-1,0.7c-0.3,0.3-0.5,0.6-0.6,1
						c-0.2,0.6-0.5,1.2-0.8,1.8c-0.2,0.3-0.5,0.6-0.8,0.7c-0.8,0.3-1.3,0.9-1.7,1.6c-0.4,0.8-1.1,1.2-1.9,1.4
						c-0.6,0.1-1.2,0.4-1.6,0.9c-0.5,0.6-1.1,0.8-1.9,0.5c-0.7-0.2-1.3,0-1.8,0.5c-0.3,0.3-0.6,0.5-1.1,0.5c-0.3,0-0.7,0.1-1,0.2
						c-0.3,0.1-0.6,0.3-0.8,0.6c-0.2,0.3-0.5,0.6-0.7,0.8c-0.6,0.5-0.9,1.3-0.5,2.1c0.2,0.4,0.4,0.8,0.5,1.3
						c0.1,0.6,0.6,0.9,1.1,1.1c0.5,0.2,0.8,0.5,0.7,1.1c0,0.1,0.1,0.3,0.1,0.4c0.1,0.2,0.3,0.5,0.4,0.7c0.2,0.4,0.3,0.8,0.1,1.2
						c-0.2,0.5-0.3,1-0.2,1.6c0,0.5-0.2,0.9-0.5,1.2c-0.3,0.3-0.6,0.7-0.9,1c-0.3,0.2-0.6,0.4-1,0.6c-0.1,0-0.2,0-0.3,0
						c0-0.1,0-0.2,0.1-0.3c0.1-0.2,0.3-0.4,0.5-0.6c1.2-1.6,1.1-4-0.3-5.3c-0.5-0.5-1.1-0.8-1.7-1.2c-0.8-0.5-1.6-0.9-2.4-1.5
						c-0.8-0.6-1.5-1.3-1.8-2.3c-0.4-1.1-0.1-2.1,0.6-2.9c0.4-0.5,1-1,1.6-1.4c1.4-0.9,2.8-1.7,4.3-2.3c0.5-0.2,1-0.5,1.5-0.7
						c0.3-0.2,0.7-0.4,1-0.5c1.3-0.3,2.4-1,3.6-1.7c0.8-0.4,1.5-0.9,2.2-1.4c1.1-0.7,1.9-1.7,2.7-2.8c0.5-0.8,1-1.7,1.1-2.6
						c0.1-0.5,0.1-0.9-0.1-1.3c-0.1-0.4-0.5-0.7-0.9-0.8c-0.3-0.1-0.5,0.1-0.6,0.4c-0.1,0.3-0.2,0.5-0.4,0.8c-0.3,0.5-0.6,1-1.1,1.3
						c-0.4,0.2-0.7,0.5-0.8,0.9c-0.3,0.6-0.7,0.9-1.3,1.1c-0.7,0.2-1.3,0.5-1.6,1.1c-0.2,0.3-0.5,0.5-0.9,0.6
						c-0.3,0.1-0.7,0.2-1,0.3c-0.4,0.1-0.8,0.3-1.1,0.5c-0.4,0.4-1,0.6-1.6,0.7c-0.9,0-1.7,0.2-2.4,0.8c-0.3,0.2-0.6,0.3-1,0.3
						c-0.4,0-0.9,0-1.3-0.1c-0.6-0.1-1.2-0.1-1.8,0.2c-0.7,0.3-1.4,0.3-2,0c-0.1,0-0.1-0.1-0.2-0.1c-0.6-0.3-1.1-0.4-1.8-0.2
						c-0.8,0.2-1.4-0.1-2-0.5c-0.2-0.2-0.4-0.3-0.7-0.5c-0.4-0.2-0.9-0.2-1.4-0.1c-0.1,0-0.2,0-0.3,0.1c-0.5,0.2-0.9,0.1-1.2-0.4
						c-0.5-0.7-1.2-0.8-2-0.7c-0.5,0.1-1,0.1-1.4-0.2c-0.7-0.5-1.4-0.3-1.8,0.4c-0.3,0.4-0.6,0.8-1,1.1c-0.6,0.4-0.7,1-0.5,1.7
						c0.1,0.3,0.2,0.6,0.3,0.9c0.1,0.3,0.2,0.6,0.1,0.9c-0.1,0.7,0,1.2,0.5,1.7c0.4,0.4,0.6,0.9,0.4,1.5c-0.1,0.4-0.1,0.9,0,1.3
						c0.3,0.8-0.1,1.4-0.5,2c-0.2,0.3-0.5,0.2-0.6-0.1c-0.1-0.3-0.2-0.6-0.3-0.9c-0.3-1.3-1-2.4-1.8-3.4c-0.2-0.3-0.5-0.6-0.7-1
						c-0.4-0.5-0.8-1-1.2-1.6c-0.7-1.1-1.2-2.3-1.2-3.6c0-1.3,0.5-2.4,1.4-3.3c0.2-0.2,0.5-0.5,0.7-0.7c0.4-0.3,0.6-0.3,0.9,0.1
						c0.3,0.5,0.7,1,1,1.5c0.3,0.4,0.5,0.8,0.8,1.2c0.2,0.3,0.5,0.3,0.7,0c0.1-0.1,0.1-0.3,0.2-0.5c0.2-1,0.4-1.9,0.6-2.9
						c0.2-0.7,0.3-0.8,1.1-0.9c0.2,0,0.5-0.1,0.7-0.1c0.4,0,0.8,0,1.3,0.1c0.9,0.1,1.9,0.3,2.8,0.4c0.7,0.1,1.5,0.1,2.3,0.2
						c1.4,0.1,2.8,0.3,4.1,0.6c1.4,0.2,2.9,0.3,4.3,0.2c0.4,0,0.8,0,1.2,0c1.4,0,2.8-0.4,4-0.9c0.3-0.1,0.6-0.3,0.9-0.4
						c1.3-0.6,2.3-1.5,3-2.8c0.1-0.3,0.3-0.5,0.4-0.8c0.1-0.1,0.1-0.3,0.1-0.4c0-0.3-0.4-0.5-0.7-0.3c-0.1,0.1-0.3,0.2-0.4,0.3
						c-0.4,0.3-0.8,0.6-1.3,0.6c-0.5,0-1,0.2-1.3,0.6c-0.3,0.3-0.6,0.4-1,0.4c-0.6,0-1.2,0.1-1.7,0.6c-0.4,0.4-1,0.3-1.5,0.3
						c-0.4-0.1-0.7,0-1.1,0.1c-0.3,0.1-0.6,0.2-0.9,0.2c-0.9,0.1-1.7-0.3-2.3-0.9c-1.3-1.2-2.3-2.7-3.3-4.1c0,0,0,0-0.1-0.1
						c-0.3-0.5-0.1-0.8,0.4-0.8c1.2,0,2.3,0.1,3.5,0.2c0.2,0,0.5,0,0.7-0.1c0.5-0.4,1-0.4,1.5-0.3c1.1,0.1,2.2,0.1,3.2-0.2
						c1-0.3,2-0.5,2.8-1.2c0.1-0.1,0.2-0.1,0.3-0.2c0.3-0.4,0.6-0.7,1.1-0.9c0.1-0.1,0.3-0.2,0.3-0.4c0.2-0.3,0-0.5-0.3-0.5
						c-0.6,0-1.2,0-1.8,0c-0.5,0.1-1,0.1-1.5-0.2c-0.6-0.3-1.2-0.4-1.9-0.4c-0.2,0-0.3,0-0.5,0c-0.6,0.1-1-0.2-1.4-0.5
						c-0.5-0.5-1.1-0.7-1.7-0.8c-0.3-0.1-0.7-0.1-1-0.1c-0.6-0.1-1.1-0.3-1.4-0.8c-0.3-0.4-0.7-0.9-1.1-1.3
						c-0.2-0.2-0.5-0.4-0.8-0.6c-0.2-0.1-0.5-0.2-0.8-0.3c-0.7-0.2-1.2-0.7-1.6-1.4c-0.2-0.4-0.4-0.7-0.5-1.1
						c-0.2-0.6-0.6-1-1.2-1.2c-1-0.4-1.6-1.1-1.7-2.2c-0.1-0.7-0.5-1.2-1-1.6c-0.7-0.5-1.1-1.2-1.1-2.1c0-0.9-0.3-1.8-1-2.5
						c-0.5-0.5-0.6-1.1-0.5-1.8c0.1-0.8,0-1.5-0.4-2.3c-0.5-0.8-0.8-1.8-0.8-2.8c0-0.3,0.1-0.6,0.2-0.8c0.2-0.7,0.1-1.3-0.1-2
						c-0.2-0.6-0.2-1.2,0.1-1.8c0.3-0.5,0.5-1.1,0.4-1.7c0-0.2,0-0.5-0.1-0.7c-0.3-0.9-0.2-1.7,0.5-2.4c0.6-0.7,0.9-1.5,0.9-2.4
						c0-0.3,0-0.5,0-0.8c0-0.6,0.2-1.1,0.6-1.5c0.4-0.4,0.8-0.7,1-1.2c0.3-0.6,0.4-1.1,0.4-1.8c0-0.6,0.2-1.1,0.7-1.5
						c0.2-0.1,0.4-0.3,0.6-0.5c0.5-0.4,0.7-0.9,0.8-1.5c0-0.1,0-0.1,0-0.2c0.1-0.7,0.5-1.2,1.1-1.6c0.8-0.4,1.2-1.1,1.3-1.9
						c0.1-0.6,0.4-1,1-1.1c0.9-0.2,1.4-0.8,1.8-1.5c0.1-0.1,0.1-0.3,0.1-0.4c0.1-0.7,0.5-1,1.2-1.2c1-0.2,1.6-0.9,1.9-1.8
						c0.1-0.1,0.1-0.3,0.1-0.4c0.1-0.4,0.3-0.6,0.7-0.7c1-0.2,1.5-0.9,1.7-1.8c0.1-0.5,0.4-0.7,0.8-0.8c0.9-0.3,1.5-1.2,1.4-2.1
						c0-0.5,0-0.9,0.1-1.4c0-0.2,0.1-0.4,0.3-0.6c0.6-0.8,0.5-1.9-0.2-2.7c-0.1-0.1-0.2-0.2-0.3-0.3c-0.3-0.2-0.4-0.5-0.4-0.8
						c0-0.5-0.2-0.8-0.6-1.1c-0.2-0.1-0.4-0.2-0.3-0.5c0.1-0.3,0.4-0.2,0.6-0.2c0.5,0.2,1,0.3,1.4,0.6c0.9,0.7,1.6,1.6,2,2.6
						c0.2,0.4,0.2,0.9,0.3,1.3c0.1,0.4,0.1,0.7,0.1,1.1c0.1,1.2-0.3,2.3-0.7,3.4c-0.3,0.7-0.7,1.4-0.9,2.2c-0.3,0.8-0.8,1.4-1.2,2
						c-0.5,0.7-1.1,1.4-1.6,2.1c-0.8,1-1.6,1.9-2.3,2.8c-0.6,0.8-1.2,1.6-1.8,2.4c-0.7,1-1.5,2-2.2,3c-0.9,1.5-1.8,2.9-2.6,4.5
						c-0.3,0.7-0.8,1.4-1.1,2.1c-0.7,1.6-1.5,3.1-1.9,4.8c-0.2,0.9-0.3,1.8-0.4,2.6c-0.1,0.8-0.2,1.7-0.2,2.5c0,0.5,0,0.9,0,1.4
						c0.1,0.7,0.2,1.4,0.2,2.1c0.1,1.1,0.4,2.2,0.7,3.3c0.2,0.7,0.4,1.4,0.6,2c0.5,1.1,0.9,2.3,1.5,3.4c0.2,0.5,0.5,1,0.8,1.4
						c0.4,0.5,0.8,1,1.2,1.4c0.3,0.4,0.7,0.7,1,1.1c0.1,0.1,0.3,0.3,0.4,0.4c1.4,1,2.8,1.9,4.5,2.4c1,0.3,2,0.4,3,0.5
						c0.4,0,0.9-0.1,1.3-0.1c0.6-0.1,1.1-0.2,1.7-0.3c0.7-0.1,1.4-0.4,2-0.9c0.1-0.1,0.3-0.2,0.4-0.3c0.3-0.2,0.6-0.1,0.7,0.3
						c0.1,0.3,0.2,0.7,0.2,1c0.3,1.2,0.7,2.4,1.3,3.5c0.4,0.8,1,1.5,1.5,2.2c0.1,0.2,0.3,0.3,0.5,0.2c0.2-0.1,0.2-0.3,0.1-0.6
						c-0.4-0.7-0.9-1.4-1.3-2.1c-0.7-1.3-1.2-2.8-1.5-4.2c-0.3-1.8-0.4-3.6,0.2-5.4c0.1-0.4,0.3-0.8,0.6-1.1
						c0.4-0.6,1.1-0.8,1.8-0.9c1.5-0.2,2.7,0.5,3.8,1.3c0.6,0.4,1.1,1,1.6,1.4c0.5,0.4,1,0.9,1.5,1.3c1.1,0.8,2.3,1.2,3.7,0.8
						c1.3-0.4,2.2-1.2,3-2.1c0.8-0.8,1.5-1.7,2.4-2.4c1-0.9,2.2-1.1,3.5-0.7c0.9,0.2,1.5,0.8,1.8,1.7c0.3,1,0.6,2.1,0.5,3.2
						c-0.1,1.1-0.2,2.2-0.3,3.3c-0.1,1.7-0.6,3.2-1.3,4.7c-0.1,0.2-0.3,0.4,0,0.5c0.1,0,0.3-0.2,0.4-0.3c0.6-1,1.1-1.9,1.4-3.1
						c0.2-0.9,0.3-1.7,0.5-2.6c0,0,0-0.1,0-0.1c0.1-0.7,0.2-0.9,0.9-0.4c0.9,0.6,1.8,1.2,2.9,1.5c0.7,0.2,1.5,0.3,2.2,0.4
						c0.9,0.2,1.8,0.2,2.8,0.2c1.1-0.1,2.3-0.1,3.4-0.7c0.2-0.1,0.5-0.2,0.8-0.3c0.8-0.3,1.4-0.7,2-1.3c0.2-0.2,0.4-0.5,0.7-0.7
						c1.7-1.6,2.9-3.6,3.8-5.6c0.8-1.7,1.3-3.5,1.7-5.3c0.2-1,0.3-2,0.4-3c0-0.8-0.1-1.6-0.2-2.3c-0.2-1.2-0.3-2.4-0.6-3.5
						c-0.4-1.4-0.9-2.8-1.4-4.3c-0.1-0.3-0.3-0.6-0.4-0.9c-0.4-1.3-1.1-2.4-1.7-3.6c-0.7-1.4-1.7-2.7-2.6-4.1
						c-1.2-1.9-2.5-3.8-3.8-5.6c-0.9-1.3-2-2.6-2.9-4c-1-1.4-1.9-2.8-2.4-4.5c-0.3-1-0.6-1.9-0.6-2.9c0-0.4-0.1-0.8-0.1-1.2
						c0-0.8,0.1-1.5,0.2-2.3c0.1-0.6,0.5-1.1,0.8-1.6c0.5-0.7,1-1.2,1.8-1.5c0.2-0.1,0.5-0.1,0.7-0.1c0.1,0,0.3,0.1,0.3,0.2
						c0,0.1,0,0.2-0.1,0.3c-0.1,0.1-0.2,0.2-0.4,0.3c-0.3,0.3-0.5,0.7-0.4,1.2c0.1,0.4,0,0.7-0.2,0.9c0,0,0,0-0.1,0.1
						c-0.6,0.6-0.8,1.3-0.3,2.1c0.2,0.3,0.2,0.6,0.1,0.9c-0.4,1.1,0.2,2,1,2.5c0.1,0.1,0.2,0.1,0.3,0.2c0.3,0.2,0.5,0.4,0.5,0.8
						c0,0.5,0.1,0.9,0.4,1.3c0.3,0.5,0.7,0.8,1.3,0.8c0.1,0,0.2,0,0.2,0c0.5,0,0.6,0.2,0.8,0.6c0.1,0.4,0.2,0.8,0.4,1.2
						c0.3,0.7,0.9,1.1,1.6,1.2c0.1,0,0.1,0,0.2,0c0.7,0.1,0.8,0.3,0.9,1c0.1,1.2,0.8,1.9,1.9,2c0.9,0.1,1.4,0.5,1.6,1.4
						c0,0,0,0.1,0,0.1c0.1,1.2,0.8,1.8,1.8,2.3c0.1,0.1,0.2,0.1,0.3,0.1c0.5,0.3,0.7,0.6,0.7,1.2c0,0.5,0.1,0.9,0.2,1.4
						c0.1,0.6,0.5,1,1,1.2c0.5,0.2,0.8,0.6,0.7,1.2c0,0.3,0,0.7,0.1,1c0.1,0.6,0.4,1.1,0.9,1.4c0.9,0.5,0.9,1.3,0.8,2.1
						c-0.1,0.6-0.1,1.2,0.2,1.7c0.2,0.3,0.5,0.6,0.8,0.8c0.6,0.4,0.8,0.9,0.6,1.6c-0.1,0.3-0.2,0.7-0.3,1c-0.5,1.1-0.1,2,0.5,2.8
						c0,0,0,0,0.1,0.1c0.6,0.6,0.6,1,0.2,1.8c-0.2,0.3-0.3,0.6-0.4,0.9c-0.2,0.5-0.1,1,0.1,1.5c0.1,0.3,0.2,0.6,0.2,0.9
						c0.1,0.6-0.1,1.2-0.5,1.6c-0.4,0.5-0.8,1-0.9,1.6c0,0.4-0.1,0.8,0,1.2c0.1,0.8,0,1.5-0.6,2.2c-0.3,0.3-0.5,0.7-0.8,1.1
						c-0.2,0.3-0.3,0.7-0.2,1.1c0.1,0.7-0.1,1.2-0.7,1.6c-0.7,0.5-1.1,1.2-1.1,2.1c0,0.6-0.2,1.1-0.8,1.4c-0.3,0.1-0.5,0.3-0.7,0.5
						c-0.4,0.3-0.8,0.6-1,1.1c-0.3,0.7-0.7,1.3-1.3,1.8c-0.3,0.2-0.6,0.4-0.8,0.6c-0.1,0.1-0.3,0.2-0.4,0.2
						c-0.7,0.3-1.2,0.8-1.4,1.5c0,0.1-0.1,0.2-0.1,0.3c-0.2,0.5-0.5,0.8-1.1,0.8c-0.7,0-1.3,0.3-1.8,0.8c-0.2,0.2-0.3,0.3-0.5,0.5
						c-0.3,0.4-0.7,0.5-1.1,0.4c-0.8-0.1-1.4,0.2-2,0.6c-0.2,0.1-0.3,0.3-0.5,0.3c-0.3,0.2-0.5,0.3-0.9,0.1
						c-0.5-0.2-0.9-0.1-1.4,0.1c-0.5,0.2-1,0.1-1.5,0.1c-0.1,0-0.4,0-0.4,0.1c-0.1,0.1,0,0.3,0.1,0.5c0.1,0.3,0.4,0.5,0.7,0.7
						c1.5,0.7,3,1.1,4.7,1.3c0.4,0.1,0.8,0.1,1.3,0.1c0.4,0,0.8-0.1,1.2-0.2c0.3-0.1,0.5-0.1,0.8,0.1c0.2,0.1,0.4,0.1,0.6,0.1
						c0.7-0.1,1.5-0.2,2.2-0.2c0.3,0,0.6-0.1,0.9-0.1c0.1,0,0.3-0.1,0.4-0.1c0.1,0,0.3,0,0.4,0.1c0.1,0.1,0,0.3-0.1,0.4
						c-0.4,0.6-0.7,1.2-1.2,1.7c-0.5,0.6-1,1.2-1.5,1.8c-0.7,0.7-1.4,1.4-2.1,2.2c-0.5,0.5-0.8,0.5-1.4,0.2
						c-0.4-0.2-0.7-0.3-1.1-0.2c-0.6,0.1-1.1,0-1.6-0.3c-0.3-0.2-0.7-0.2-1.1-0.3c-0.2-0.1-0.5,0-0.8,0c-0.4,0-0.7-0.1-0.9-0.3
						c-0.6-0.5-1.3-0.8-2.1-0.9c-0.2,0-0.4-0.1-0.7-0.2c-0.5-0.2-1-0.5-1.6-0.7c-0.2-0.1-0.4-0.2-0.5,0c-0.2,0.2-0.1,0.4,0,0.5
						c0.2,0.4,0.3,0.7,0.5,1.1c0.2,0.4,0.5,0.8,0.8,1.1c1.4,1.2,3.1,1.9,4.9,2.5c0.7,0.2,1.4,0.4,2.2,0.5c0.1,0,0.3,0,0.5,0
						c0.3,0,0.5,0,0.8,0c0.6,0,1.2,0,1.8,0c0.4,0,0.9-0.1,1.3-0.1c0.9,0,1.8-0.2,2.7-0.4c1.8-0.4,3.6-0.7,5.5-1.1
						c1-0.2,2.1-0.4,3.1-0.5c0,0,0.1,0,0.1,0c0.7,0,1.4-0.1,2.1-0.1c0.5,0,0.6,0.1,0.7,0.7c0,1,0.1,2,0.1,3c0,0.4,0.1,0.8,0.1,1.3
						c0,0.1,0,0.2,0.1,0.3c0,0.2,0.1,0.4,0.3,0.4c0.2,0,0.4-0.1,0.5-0.2c0.2-0.2,0.3-0.4,0.5-0.6c0.1-0.1,0.1-0.3,0.2-0.3
						c0.5-0.4,0.7-1,0.9-1.6c0.1-0.2,0.2-0.5,0.3-0.7c0.2-0.4,0.5-0.5,0.8-0.2c0.9,0.8,1.7,1.8,1.9,3
						C104.2,95.9,104.2,96.3,104.2,96.7z M46.7,70.7c0,0.2,0.1,0.5,0.1,0.8c0.2,1.6,0.8,3,1.7,4.2c0.7,0.8,1.5,1.5,2.6,1.7
						c0.9,0.2,1.7,0,2.4-0.7c0.7-0.7,0.9-1.6,0.9-2.6C54.3,73.1,54,72,53.6,71c-0.6-1.3-1.3-2.4-2.3-3.4c-0.6-0.6-1.3-1-2.3-0.8
						c-0.1,0-0.2,0-0.3,0c-0.3-0.1-0.6,0-0.8,0.2c-0.3,0.3-0.5,0.6-0.7,0.9C46.8,68.8,46.7,69.7,46.7,70.7z M68.6,70.1
						c0-0.4-0.1-0.8-0.1-1.2c-0.1-0.8-0.4-1.4-1-1.9c-0.1-0.1-0.3-0.3-0.4-0.4c-0.2-0.3-0.5-0.4-0.9-0.2c-1.3,0.6-2.6,1.3-3.5,2.5
						c-1.2,1.8-1.9,3.7-1.7,5.9c0.1,0.8,0.4,1.6,1,2.2c0.4,0.5,1,0.8,1.7,0.8c1.2,0,2-0.6,2.7-1.4C67.8,74.4,68.4,72.4,68.6,70.1z"
						/>
					<path class="st2" d="M80.2,43.9c-0.1,0.8-0.3,1.7-0.3,2.6c-0.1,1.4-0.6,2.8-0.9,4.2c-0.1,0.6-0.3,1.1-0.5,1.6
						c-0.4,1-0.9,2.1-1.4,3.1c-0.4,0.8-0.7,1.5-1.1,2.3c-0.6,1.2-1.3,2.3-2.2,3.4c-0.8,1-1.5,1.9-2.3,2.9c-0.2,0.2-0.3,0.5-0.5,0.7
						c-0.3,0.4-0.6,0.4-0.8,0c-0.7-1.3-1.8-2-3.3-2.1c-1.2-0.1-2.4,0.4-3.3,1.3c-0.8,0.8-1.6,1.6-2.4,2.4c-0.4,0.4-0.8,0.8-1.2,1.1
						c-0.6,0.4-1.3,0.7-2.1,0.7c-0.6,0-1.2,0-1.8-0.3c-0.2-0.1-0.4-0.2-0.5-0.3c-0.7-0.6-1.3-1.3-2-1.9c-1.1-1-2.3-1.8-3.7-2.2
						c-1.2-0.4-2.4-0.2-3.4,0.5c-0.3,0.2-0.4,0.4-0.6,0.6c-0.1,0.1-0.1,0.2-0.2,0.2c-0.2,0.2-0.4,0.2-0.6-0.1c0-0.1-0.1-0.1-0.1-0.2
						c-0.7-1.6-1.6-3-2.6-4.4c-0.4-0.7-0.9-1.3-1.3-2c-0.4-0.7-0.8-1.4-1.1-2.2c-0.5-1.2-1-2.4-1.4-3.7c-0.5-1.3-0.8-2.6-1-4
						c-0.1-1-0.4-2-0.4-3c-0.1-1-0.2-1.9-0.1-2.9c0.1-0.5,0.1-1.1,0.1-1.6c0.1-1.9,0.5-3.8,1.3-5.6c0.4-0.8,0.7-1.7,1.1-2.5
						c0.6-1,1.3-2,2-2.9c0.4-0.6,0.9-1.2,1.5-1.7c0.1-0.1,0.3-0.2,0.4-0.4c0.3-0.6,0.8-1,1.2-1.4c1-0.9,2-1.7,3.3-2.3
						c0.9-0.4,1.8-0.7,2.8-1c0.6-0.2,1.1-0.4,1.7-0.6c0.8-0.2,1.6-0.4,2.4-0.6c0.7-0.1,1.5-0.2,2.3-0.2c0.3,0,0.6,0.1,0.9,0.1
						c0.3,0,0.5,0.1,0.8,0.1c0.4,0,0.8,0,1.1,0c1.6-0.1,3.2,0.1,4.7,0.5c0.8,0.2,1.7,0.3,2.5,0.6c1.3,0.5,2.7,1,3.8,2
						c0.5,0.5,1.1,0.9,1.6,1.4c1,1,1.8,2.1,2.6,3.2c0.4,0.5,0.7,0.9,1.1,1.4c0,0,0,0,0,0.1c0.3,0.9,1.1,1.6,1.4,2.5
						c0.3,0.9,0.7,1.8,0.9,2.7c0.3,1.2,0.7,2.4,0.9,3.6c0.2,0.9,0.2,1.8,0.3,2.7C80.1,42.8,80.2,43.3,80.2,43.9z"/>
					<path class="st2" d="M31,83.3c-0.6,0.1-1.1,0.1-1.7,0.3c-0.3,0.1-0.5,0-0.8-0.1c-2.1-1.2-4.2-2.3-6.1-3.8
						c-0.6-0.5-1.1-1-1.4-1.7c0-0.1-0.1-0.2-0.1-0.3c-0.8-0.9-1.1-2.1-1.5-3.2c-0.5-1.2-0.7-2.6-0.9-3.9c-0.2-1.1-0.3-2.2-0.4-3.4
						c0-0.4,0.1-0.9,0.2-1.3c0-0.1,0.1-0.2,0.1-0.2c0.1,0,0.1,0.1,0.2,0.1c0,0.1,0.1,0.1,0.1,0.2c0.6,1.1,1.2,2.3,1.8,3.4
						c0.6,0.9,1.2,1.8,1.9,2.7c0.9,1.2,1.9,2.4,2.9,3.6c0.9,1.1,1.7,2.2,2.7,3.1c1.3,1.3,2.7,2.6,4,4c0.1,0.1,0.1,0.1,0.2,0.2
						c0,0.1,0.1,0.3,0.1,0.4c0,0.1-0.2,0.1-0.3,0.1C31.5,83.4,31.3,83.4,31,83.3C31,83.3,31,83.3,31,83.3z"/>
					<path class="st2" d="M99.5,64.5c0,0.4-0.1,0.7-0.1,1.1c-0.2,1.6-0.4,3.2-0.8,4.8c-0.3,1.1-0.5,2.2-0.8,3.3
						c-0.4,1.3-0.9,2.5-1.3,3.8c-0.3,0.8-0.6,1.5-1.1,2.2c-0.2,0.3-0.5,0.5-0.8,0.7c-1,0.5-2,0.9-2.9,1.3c-0.9,0.5-2,0.6-3,0.8
						c-0.7,0.1-1.3,0.2-2,0.3c-0.1,0-0.3-0.1-0.4-0.1c0.1-0.2,0.1-0.3,0.2-0.4c0.3-0.4,0.7-0.7,1-1c0.7-0.7,1.3-1.4,2-2.1
						c0.1-0.2,0.3-0.3,0.4-0.5c0.8-1,1.7-2.1,2.5-3.1c0.9-1.2,1.8-2.4,2.6-3.6c0.9-1.4,1.9-2.8,2.6-4.3c0.5-1.1,1.1-2.2,1.6-3.3
						c0.1-0.2,0.2-0.3,0.4-0.4C99.4,64.1,99.4,64.3,99.5,64.5C99.5,64.5,99.5,64.5,99.5,64.5C99.5,64.5,99.5,64.5,99.5,64.5z"/>
					<path class="st2" d="M109.8,58.1c1.7-0.1,3.1,0.7,4.2,1.9c0.6,0.6,0.6,1.5,0.7,2.3c0,1-0.4,1.6-1.2,2.2c-0.5,0.4-1,0.3-1.6,0.2
						c-0.5-0.1-0.8-0.6-0.8-1.1c0-0.6,0.2-1,0.7-1.2c0.2-0.1,0.5-0.1,0.7,0c0.2,0.1,0.4,0.1,0.5-0.1c0.1-0.2,0-0.4-0.1-0.6
						c-0.3-0.3-0.6-0.4-1-0.3c-0.4,0.1-0.7,0-1-0.1c-0.1-0.1-0.3-0.1-0.4-0.2c-0.4-0.1-0.7,0-0.9,0.4c-0.3,0.5-0.6,0.7-1.1,0.8
						c-0.6,0.1-1.1,0.5-1.1,1.2c-0.1,0.5-0.3,0.8-0.7,1c-0.5,0.3-0.8,0.8-0.8,1.3c0,0.3-0.1,0.5-0.4,0.7c-0.6,0.3-0.8,0.8-1,1.4
						c-0.1,0.5-0.4,0.9-0.6,1.2c-0.3,0.4-0.5,0.3-0.6-0.1c-0.1-0.5-0.2-1-0.3-1.5c-0.2-0.9-0.4-1.8-0.7-2.7
						c-0.1-0.5-0.1-0.9,0.2-1.3c0.5-0.6,1-1.2,1.5-1.9c0.8-1.1,1.8-1.9,2.9-2.7C107.4,58.4,108.3,58,109.8,58.1z"/>
					<path class="st2" d="M7.7,58.9c1.8-0.1,3.3,0.7,4.8,1.8c0.9,0.7,1.7,1.5,2.4,2.4c0.1,0.1,0.2,0.3,0.4,0.4
						c0.3,0.3,0.3,0.6,0.2,1c-0.6,1.6-0.9,3.3-1.3,5c0,0.2,0,0.5-0.3,0.5c-0.1,0-0.2-0.2-0.3-0.4c-0.2-0.3-0.4-0.7-0.6-1
						c-0.3-0.3-0.3-0.7-0.4-1.1c-0.1-0.6-0.4-1.1-0.9-1.4c-0.1-0.1-0.2-0.2-0.3-0.3c-0.3-0.2-0.5-0.5-0.5-0.9c0-0.9-0.4-1.5-1.3-1.8
						c-0.4-0.1-0.7-0.4-0.9-0.8c-0.4-0.8-1-1-1.9-0.8c-0.2,0-0.5,0-0.8,0c-0.7-0.1-1.3,0.1-1.8,0.5c-0.3,0.2-0.4,0.5-0.4,0.8
						c0,0.1,0,0.3,0.1,0.4c0.1,0.2,0.3,0.3,0.5,0.1c0.1-0.1,0.1-0.2,0.2-0.3c0.2-0.4,0.6-0.5,1-0.5c0.4,0,0.7,0.2,0.9,0.6
						c0.2,0.5,0.2,1.1-0.1,1.6c-0.1,0.2-0.4,0.4-0.6,0.4c-0.3,0.1-0.7,0.1-1.1,0c-1.8-0.6-2.5-2-2.1-3.8c0.1-0.6,0.5-1,1-1.3
						c0.3-0.2,0.6-0.4,0.9-0.6C5.5,59,6.5,58.9,7.7,58.9z"/>
					<path class="st2" d="M60,115.6c0.1-0.2,0.1-0.5,0.2-0.7c0.6-1.8,1.5-3.6,2.7-5.1c1.6-2.1,3.6-3.5,6.3-3.9c0.1,0,0.3,0,0.4-0.1
						c0.5-0.3,1-0.3,1.6-0.3c0.2,0,0.4-0.1,0.6-0.1c0.4-0.1,0.7-0.1,1,0.2c0.6,0.7,1.5,0.9,2.4,1c0.2,0,0.3,0,0.5,0.1
						c0.1,0.1,0.2,0.2,0.3,0.3c0,0.1-0.2,0.2-0.2,0.3c0,0-0.1,0-0.1,0.1c-1,0.2-1.9,0.7-2.8,1.1c-1.6,0.7-3.1,1.4-4.7,2.1
						c-1.5,0.7-3,1.5-4.4,2.4c-1.1,0.7-2.1,1.5-3,2.5c-0.1,0.1-0.2,0.2-0.4,0.3c-0.1,0-0.2,0.1-0.2,0C60.1,115.7,60,115.6,60,115.6z
						"/>
					<path class="st2" d="M57.4,115.5c0,0.3-0.1,0.4-0.3,0.2c-0.1-0.1-0.3-0.2-0.4-0.3c-0.8-0.6-1.5-1.3-2.3-1.9
						c-0.8-0.6-1.5-1.2-2.4-1.6c-1.6-0.9-3.1-1.8-4.8-2.5c-0.5-0.2-1-0.5-1.6-0.8c-0.9-0.4-1.8-0.8-2.7-1.2
						c-0.3-0.1-0.6-0.3-0.8-0.4c-0.2-0.2-0.2-0.4,0.1-0.5c0.6-0.2,1.1-0.5,1.6-1c0.2-0.2,0.5-0.3,0.8-0.2c0.6,0.2,1.3,0.1,1.9-0.1
						c0.3-0.2,0.7-0.2,1,0.1c0.5,0.3,1.1,0.6,1.7,0.7c0.7,0.1,1.3,0.5,1.9,0.9c1,0.6,1.9,1.3,2.6,2.2c1,1.2,1.9,2.4,2.7,3.7
						c0.4,0.7,0.6,1.5,1,2.3C57.4,115.3,57.4,115.4,57.4,115.5z"/>
					<path class="st2" d="M59.3,12.2C59.3,12.2,59.3,12.2,59.3,12.2c1.1-0.1,1.3,0.4,1.6,1.1c0.2,0.8,0.4,1.7,0.6,2.6
						c0.2,0.8,0.2,1.6,0.4,2.4c0.1,0.7,0.3,1.3,0.4,2c0,0.1,0,0.1,0.1,0.2c0.1,0.4-0.1,0.6-0.6,0.6c-0.5-0.1-1-0.1-1.5-0.2
						c-0.5,0-1,0-1.6-0.2c-0.5-0.1-1-0.1-1.4-0.1c-0.5,0-1,0.1-1.5,0.2c-0.6,0.1-0.8-0.1-0.7-0.7c0.3-2.1,0.6-4.2,1.4-6.2
						c0.4-1.1,1.2-1.7,2.4-1.8C58.9,12.2,59.1,12.2,59.3,12.2C59.3,12.2,59.3,12.2,59.3,12.2z"/>
					<path class="st2" d="M38,20.9c0,0.8-0.2,1-0.8,1.2c-0.7,0.2-1.2,0.7-1.3,1.4c-0.1,0.6-0.5,1-1.1,1.2c-0.7,0.2-1.2,0.7-1.4,1.4
						c0,0.2-0.1,0.4-0.2,0.6c-0.2,0.4-0.4,0.7-0.8,0.8c-0.2,0.1-0.4,0.1-0.6,0.2c-0.4,0.1-0.8,0.3-1.1,0.6c-0.4,0.3-0.9,0.2-1.1-0.3
						c-0.1-0.2-0.2-0.4-0.2-0.6c-0.1-0.8-0.2-1.6-0.1-2.4c0.1-0.6,0.1-1.3,0.3-1.9c0.4-0.9,0.8-1.8,1.2-2.6c0.3-0.5,0.8-0.8,1.4-0.8
						c0.7,0,1.4-0.1,2-0.1c0.7,0,1.3,0.1,2,0.2c0.3,0,0.6,0.1,0.9,0.1c0.6,0,0.9,0.2,0.9,0.9C38,20.7,38,20.8,38,20.9z"/>
					<path class="st2" d="M88.1,26.9c0,0.2,0,0.3,0,0.5c-0.1,0.2-0.2,0.4-0.3,0.5c-0.3,0.2-0.6,0.4-0.9,0.5
						c-0.3,0.2-0.5,0.1-0.7-0.2c0,0,0-0.1-0.1-0.1c-0.3-0.7-0.9-1-1.6-1.1c-0.7-0.1-1-0.4-1.2-1.1c0-0.1-0.1-0.3-0.1-0.4
						c-0.2-1.1-0.6-1.4-1.7-1.6c-0.9-0.1-1-0.2-1-1.1c0-0.8-0.3-1.3-1-1.6c-0.2-0.1-0.4-0.2-0.6-0.3c-0.1-0.1-0.3-0.3-0.3-0.4
						c-0.1-0.3,0-0.6,0.3-0.6c1.2,0,2.4-0.2,3.6,0c0.8,0.1,1.7,0.1,2.5,0c0.7,0,1.1,0.3,1.3,0.8c0.5,1.3,1.1,2.6,1.2,4
						C88,25.4,88,26.2,88.1,26.9C88.1,26.9,88.1,26.9,88.1,26.9z"/>
					<path class="st2" d="M83.4,91.7c-0.1-0.1-0.3-0.1-0.4-0.2c0-0.1,0.1-0.2,0.1-0.4c0.1-0.1,0.2-0.2,0.3-0.3
						c1.1-1.1,2.2-2.1,3.2-3.3c0.7-0.8,1.3-1.8,1.9-2.7c0.2-0.2,0.4-0.4,0.5-0.6c0.2-0.2,0.4-0.4,0.5-0.6c0.2-0.3,0.4-0.5,0.8-0.7
						c0.7-0.3,1.4-0.6,2.1-0.9c0.5-0.2,0.9-0.5,1.4-0.7c0.1-0.1,0.2-0.1,0.3-0.1c0.2,0,0.4,0.1,0.3,0.3c0,0.1-0.1,0.3-0.1,0.4
						c-0.5,1-1,2-1.6,3c-0.7,1.2-1.4,2.4-2.3,3.4c-0.6,0.6-1,1.3-1.4,1.9c-0.3,0.4-0.7,0.7-1.3,0.8C86.4,91.3,84.9,91.6,83.4,91.7z"
						/>
					<path class="st2" d="M59.3,6.3c0.6,0,1.3,0.1,1.8,0.4c1,0.7,1.9,1.5,2,2.8c0.1,0.6,0.1,1.1,0,1.7c-0.1,0.6-0.4,1-0.8,1.4
						c-0.3,0.3-0.5,0.2-0.7-0.1c0,0,0,0,0-0.1c-0.5-1.1-1.4-1.5-2.7-1.2c-0.5,0.1-1,0.3-1.5,0.4c-0.6,0.2-1.1,0.5-1.4,1.1
						c-0.2,0.4-0.5,0.4-0.7,0c-0.6-1.1-0.8-2.3-0.5-3.5c0.4-1.4,1.4-2.4,2.8-2.7C58.1,6.5,58.7,6.4,59.3,6.3z"/>
					<path class="st2" d="M27.6,91.3c-0.9-0.1-1.7-0.2-2.6-0.3c-1-0.1-2-0.3-3-0.5c-0.3,0-0.6-0.1-0.7-0.4c-0.4-0.7-0.9-1.4-1.1-2.2
						c0-0.1,0-0.2,0-0.4c0-0.4,0.1-0.8,0.1-1.2c0-0.9,0.1-1.9,0.2-2.8c0.1-0.6,0.1-1.2,0.2-1.9c0-0.3,0.1-0.6,0.1-0.9
						c0-0.1,0.2-0.2,0.2-0.4c0.1,0.1,0.2,0.2,0.3,0.3c0.1,0.1,0.2,0.3,0.2,0.4c0.8,1.4,1.5,2.9,2.3,4.3c0.7,1.1,1.4,2.3,2.3,3.2
						c0.3,0.3,0.5,0.7,0.8,1c0.3,0.4,0.6,0.7,0.9,1.1c0.1,0.1,0.1,0.1,0.2,0.2c0.2,0.2,0.1,0.4-0.2,0.4
						C27.8,91.3,27.7,91.3,27.6,91.3C27.6,91.3,27.6,91.3,27.6,91.3z"/>
					<path class="st2" d="M33.3,92.1c-1-0.1-2.1-0.3-3.1-0.4c-0.3-0.1-0.6-0.3-0.8-0.5c-0.9-1.2-1.9-2.3-2.8-3.4
						c-0.8-1-1.5-2.1-2.3-3.2c-0.5-0.7-0.9-1.5-1.3-2.2C23,82,22.8,81.7,23,81.5c0.2,0.1,0.5,0.1,0.7,0.2c1,0.6,2,1.3,3,1.7
						c0.5,0.2,0.9,0.4,1.3,0.7c0.2,0.1,0.4,0.4,0.5,0.6c0.8,1.5,1.8,2.8,2.9,4.1c0.6,0.7,1.3,1.4,1.9,2.2c0.1,0.1,0.3,0.2,0.4,0.4
						c0.1,0.1,0.2,0.3,0.2,0.5c0,0.2-0.3,0.2-0.4,0.2C33.4,92,33.3,92,33.3,92.1C33.3,92,33.3,92.1,33.3,92.1z"/>
					<path class="st2" d="M97.8,85c0,0.4-0.1,0.7-0.3,1c-0.5,1-1.1,2-1.6,3.1c-0.2,0.4-0.5,0.6-1,0.7c-0.7,0.1-1.4,0.3-2.1,0.4
						c-0.7,0.1-1.4,0.2-2.1,0.3c-0.2,0-0.4,0.1-0.5-0.1c0-0.1,0.1-0.4,0.2-0.5c0.6-0.7,1.2-1.4,1.7-2.1c0.4-0.6,0.8-1.2,1.1-1.8
						c0.5-0.8,0.9-1.6,1.3-2.5c0.3-0.5,0.5-1,0.8-1.5c0.2-0.5,0.5-1,0.7-1.4c0-0.1,0-0.2,0.1-0.2c0.1-0.1,0.2-0.2,0.3-0.2
						c0.1,0,0.2,0.2,0.2,0.3c0.1,0.2,0.1,0.4,0.1,0.6c0.2,0.9,0.5,1.9,0.7,2.8C97.7,84.2,97.7,84.6,97.8,85z"/>
					<path class="st2" d="M82.1,99.4c0.3,0.1,0.7,0.2,1,0.3c0.6,0.3,1.2,0.2,1.8-0.1c0.4-0.3,0.8-0.2,1.2-0.2c0.4,0,0.7,0.1,1.1,0.2
						c0.4,0.1,0.8,0,1-0.3C88.6,99,89,99,89.3,99c0.4,0,0.5,0.3,0.2,0.6c-0.3,0.3-0.6,0.6-0.9,0.9c-1.4,1.2-3,2.3-4.5,3.3
						c-0.2,0.1-0.4,0.3-0.5,0.6c-0.1,0.2-0.3,0.2-0.5,0.1c-0.1-0.1-0.2-0.1-0.3-0.2c-0.9-0.9-2-1.6-3.1-2c-0.5-0.2-1.1-0.4-1.6-0.7
						c-0.1-0.1-0.3-0.2-0.3-0.3c0-0.1,0.1-0.3,0.3-0.4c0.6-0.4,1.2-0.7,1.8-1.1c0.1-0.1,0.3-0.1,0.4-0.1c0.5-0.1,1.1-0.1,1.6-0.2
						C81.9,99.4,82,99.4,82.1,99.4C82.1,99.4,82.1,99.4,82.1,99.4z"/>
					<path class="st2" d="M39.7,100.8c-0.2,0.1-0.3,0.3-0.5,0.3c-0.5,0.3-1.1,0.5-1.6,0.7c-1.1,0.6-2.1,1.2-3.2,1.8
						c-0.4,0.2-0.5,0.2-0.8,0c-0.8-0.7-1.7-1.3-2.7-1.8c-1-0.5-1.9-1-2.8-1.7c-0.6-0.4-1.1-0.9-1.6-1.4c-0.1-0.1-0.3-0.3-0.2-0.5
						c0.1-0.2,0.3-0.2,0.6-0.1c0.2,0.1,0.3,0.2,0.5,0.4c0.6,0.6,1.3,0.9,2.2,0.7c0.7-0.2,1.5-0.1,2.1,0.3c0.6,0.3,1.3,0.4,2,0.1
						c0.8-0.4,1.6-0.4,2.4-0.2c0.3,0.1,0.7,0,1,0c0.4-0.1,0.8,0,1.2,0.3c0.3,0.2,0.6,0.4,0.9,0.6C39.5,100.5,39.6,100.6,39.7,100.8z
						"/>
					<path class="st2" d="M77.7,31.2c-0.2-0.1-0.4-0.2-0.5-0.4c-0.6-0.7-1.1-1.4-1.6-2.1c-0.2-0.3-0.3-0.6-0.2-0.9
						c0.1-0.4,0.1-0.8,0-1.2c-0.3-1.5-0.7-2.9-1.4-4.2c-0.2-0.5-0.4-1-0.6-1.6c-0.1-0.4,0-0.5,0.3-0.7c0.1,0,0.2-0.1,0.4-0.1
						c0.3-0.1,0.5,0,0.6,0.4c0.1,0.3,0.1,0.6,0.2,0.8c0.3,0.9,0.5,1.9,0.8,2.8c0.2,0.4,0.4,0.9,0.7,1.3c0.9,1.4,1.8,2.7,2.7,4
						c0.2,0.2,0.3,0.5,0.4,0.7c0.1,0.2,0.1,0.4-0.2,0.5C78.8,30.8,78.3,31,77.7,31.2z"/>
					<path class="st2" d="M43.8,20.4c-0.1,0.2-0.2,0.4-0.2,0.6c-0.9,1.7-1.5,3.5-2,5.4c-0.2,0.8-0.3,1.7-0.4,2.5
						c0,0.3-0.2,0.6-0.4,0.9c-0.2,0.3-0.5,0.7-0.7,1c-0.1,0.1-0.2,0.3-0.3,0.4c-0.2,0.2-0.3,0.2-0.6,0.1c-0.5-0.2-1.1-0.3-1.6-0.5
						c-0.5-0.1-0.5-0.4-0.2-0.8c0.8-1,1.6-2,2.3-3c0.5-0.6,0.9-1.3,1.4-1.9c0.3-0.5,0.6-1.1,0.7-1.7c0-0.2,0.1-0.4,0.2-0.7
						c0.2-0.7,0.5-1.4,0.7-2.1c0.1-0.1,0.1-0.3,0.2-0.4c0.1-0.2,0.4-0.3,0.6-0.2C43.6,20,43.8,20.1,43.8,20.4z"/>
					<path class="st2" d="M50.6,21.4c0.1-1,0.3-2.1,0.9-3c0.3-0.5,0.8-0.9,1.4-1.1c0.3-0.1,0.7-0.2,1-0.2c0.5,0,0.7,0.2,0.6,0.7
						c-0.1,0.6-0.3,1.2-0.4,1.9c-0.1,0.3-0.1,0.6-0.1,0.9c-0.1,0.4-0.3,0.7-0.8,0.8c-0.7,0.2-1.4,0.4-2.1,0.5
						C50.7,22.1,50.6,22,50.6,21.4z"/>
					<path class="st2" d="M63.3,17.1c0.8,0,1.4,0.3,1.9,1c0.4,0.7,0.7,1.5,0.9,2.4c0.1,0.3,0.2,0.6,0.2,0.8c0,0.4,0,0.5-0.4,0.5
						c-0.1,0-0.2,0-0.4,0c-0.6-0.1-1.3-0.3-1.9-0.4c-0.6-0.1-0.6-0.2-0.7-0.8c-0.1-0.9-0.1-1.7-0.2-2.6
						C62.5,17.3,62.7,17.1,63.3,17.1z"/>
					<path class="st2" d="M74,97.6c0.5,0.1,1,0.1,1.4,0.2c0.3,0.1,0.5,0.2,0.7,0.4c0.5,0.4,1.1,0.6,1.8,0.5c0.2,0,0.5,0,0.7,0
						c0.1,0,0.3,0.1,0.4,0.3c0.1,0.2,0,0.3-0.2,0.5c-0.6,0.4-1.2,0.9-1.8,1.3c-0.1,0.1-0.4,0.1-0.6,0.1c-0.1,0-0.3-0.1-0.4-0.1
						c-1-0.5-2-1-3-1.6c-0.1-0.1-0.2-0.1-0.3-0.2c-0.2-0.2-0.2-0.4-0.1-0.6c0.2-0.2,0.5-0.5,0.8-0.6C73.7,97.6,73.8,97.6,74,97.6
						C74,97.6,74,97.6,74,97.6z"/>
					<path class="st2" d="M40.9,100.2c-0.1,0-0.3-0.1-0.4-0.1c-0.4-0.3-0.8-0.5-1.2-0.9c-0.3-0.2-0.2-0.5,0.1-0.7
						c0.2-0.1,0.4-0.1,0.7-0.2c0.8-0.1,1.5-0.2,2.1-0.6c0.4-0.3,0.7-0.3,1,0.1c0.2,0.2,0.4,0.3,0.6,0.5c0.2,0.2,0.2,0.4-0.1,0.6
						c-0.3,0.2-0.6,0.3-0.9,0.4c-0.5,0.2-1.1,0.5-1.6,0.7C41.2,100.2,41.1,100.2,40.9,100.2z"/>
					<path class="st2" d="M37,119c-0.5,0.1-0.9-0.2-1.2-0.7c-0.3-0.5-0.3-1,0-1.5c0.3-0.5,0.9-0.6,1.5-0.4c0.7,0.3,1.1,0.9,1.4,1.5
						c0.1,0.2-0.1,0.4-0.2,0.6C38.1,118.8,37.6,119,37,119z"/>
					<path class="st2" d="M79.9,116.3c0.2,0,0.4,0,0.6,0.1c1,0.3,1.3,1.7,0.5,2.4c-0.2,0.2-0.4,0.2-0.6,0.1c-0.6-0.3-1.2-0.6-1.8-1
						c-0.4-0.3-0.4-0.9,0-1.2C79,116.4,79.4,116.3,79.9,116.3z"/>
					<path class="st2" d="M75.9,121.3c-0.2-0.1-0.5-0.1-0.7-0.2c-0.2-0.1-0.2-0.3,0-0.4c0.6-0.3,1.1-0.7,1.6-1.1
						c0.1-0.1,0.2,0,0.3,0c0.1,0,0.1,0.1,0.2,0.1c0.7,0.4,0.7,0.9-0.1,1.3C76.8,121.1,76.4,121.2,75.9,121.3z"/>
					<path class="st2" d="M41.4,121.6c-0.7,0-1.3-0.3-1.8-0.8c-0.3-0.2-0.2-0.5,0.1-0.7c0.5-0.3,0.9-0.4,1.3,0.1
						c0.3,0.3,0.6,0.5,0.9,0.7c0.1,0.1,0.2,0.2,0.3,0.3c-0.1,0.1-0.3,0.2-0.4,0.3C41.7,121.6,41.6,121.6,41.4,121.6z"/>
					<path class="st2" d="M98.2,88.7c0,0.9,0,0.9-0.8,0.9c-0.7,0-0.9-0.2-0.5-0.9c0.2-0.3,0.4-0.7,0.6-1c0-0.1,0.1-0.1,0.1-0.2
						c0.1-0.1,0.2-0.2,0.3-0.2c0.1,0,0.2,0.2,0.2,0.3C98.1,88,98.2,88.3,98.2,88.7z"/>
					<path class="st2" d="M19.7,90.5c0-0.3,0.2-0.6,0.4-0.6c0.2,0,0.4,0.3,0.4,0.5c0,0.2-0.3,0.5-0.6,0.5
						C19.7,90.8,19.7,90.7,19.7,90.5z"/>
					<path class="st1" d="M46.7,70.7c0.1-1,0.1-1.9,0.6-2.8c0.2-0.3,0.4-0.7,0.7-0.9c0.2-0.2,0.5-0.4,0.8-0.2c0.1,0,0.2,0,0.3,0
						c0.9-0.2,1.6,0.2,2.3,0.8c1,0.9,1.8,2.1,2.3,3.4c0.5,1,0.7,2.1,0.7,3.2c0,0.9-0.2,1.8-0.9,2.6c-0.6,0.7-1.4,0.9-2.4,0.7
						c-1.1-0.2-1.9-0.8-2.6-1.7c-1-1.2-1.5-2.7-1.7-4.2C46.7,71.2,46.7,70.9,46.7,70.7z M47.6,70.5c0,1,0.1,1.9,0.5,2.8
						c0.4,1.1,1,2.1,2,2.7c0.6,0.4,1.2,0.6,1.9,0.5c0.8-0.1,1.4-0.7,1.4-1.6c0-0.3,0-0.6,0-1c0-0.9-0.2-1.7-0.5-2.5
						c-0.3-0.8-0.8-1.6-1.3-2.3c-0.4-0.6-0.9-1-1.5-1.3c-1-0.6-2.2,0.2-2.3,1.1C47.6,69.4,47.6,69.9,47.6,70.5z"/>
					<path class="st1" d="M68.6,70.1c-0.2,2.2-0.8,4.3-2.2,6.1c-0.7,0.9-1.5,1.4-2.7,1.4c-0.7,0-1.2-0.3-1.7-0.8
						c-0.6-0.6-0.9-1.3-1-2.2c-0.3-2.2,0.4-4.1,1.7-5.9c0.9-1.3,2.1-1.9,3.5-2.5c0.4-0.2,0.6-0.1,0.9,0.2c0.1,0.2,0.3,0.3,0.4,0.4
						c0.6,0.5,0.9,1.2,1,1.9C68.5,69.3,68.6,69.7,68.6,70.1z M61.9,73.7c0,0.4,0,0.7,0,1.1c0,0.2,0.1,0.3,0.1,0.5
						c0.6,1.7,2.3,1.7,3.3,0.9c0.3-0.2,0.6-0.5,0.8-0.8c1-1.4,1.5-3,1.5-4.8c0-0.5-0.1-0.9-0.1-1.3c0-0.6-0.2-1.1-0.6-1.5
						c-0.3-0.4-0.6-0.5-1-0.4c-0.3,0.1-0.6,0.2-0.8,0.3c-0.8,0.4-1.4,1.1-1.9,1.8C62.3,70.8,61.9,72.2,61.9,73.7z"/>
					<path class="st2" d="M47.6,70.5c0-0.5,0-1,0.1-1.5c0.2-0.9,1.3-1.6,2.3-1.1c0.6,0.3,1.1,0.7,1.5,1.3c0.5,0.7,1,1.5,1.3,2.3
						c0.3,0.8,0.5,1.6,0.5,2.5c0,0.3,0,0.6,0,1c0,0.8-0.6,1.5-1.4,1.6c-0.7,0.1-1.3-0.1-1.9-0.5c-1-0.7-1.6-1.7-2-2.7
						C47.7,72.4,47.5,71.4,47.6,70.5z M49.1,69.4c-0.6,0-0.9,0.4-0.8,0.9c0.2,1.4,0.6,2.7,1.5,3.9c0.2,0.3,0.5,0.5,0.8,0.7
						c0.3,0.2,0.7,0.2,1-0.1c0.5-0.5,0.4-1.5-0.1-1.9c-0.2-0.2-0.5-0.3-0.8-0.5c-0.3-0.2-0.4-0.5-0.4-0.8c0-0.2,0.1-0.4,0.1-0.6
						C50.5,70.1,49.9,69.4,49.1,69.4z"/>
					<path class="st2" d="M61.9,73.7c-0.1-1.6,0.4-2.9,1.3-4.2c0.5-0.7,1.1-1.4,1.9-1.8c0.3-0.2,0.6-0.3,0.8-0.3
						c0.4-0.1,0.8,0,1,0.4c0.3,0.4,0.6,0.9,0.6,1.5c0,0.4,0.1,0.9,0.1,1.3c-0.1,1.7-0.6,3.3-1.5,4.8c-0.2,0.3-0.5,0.6-0.8,0.8
						c-1,0.8-2.8,0.7-3.3-0.9c-0.1-0.2-0.1-0.3-0.1-0.5C61.9,74.5,61.9,74.1,61.9,73.7z M63.6,73.9c0,0.6,0.3,1,0.8,1.1
						c0.3,0.1,0.5,0,0.8-0.4c0.8-1,1.3-2.2,1.5-3.4c0.1-0.5,0.1-1-0.1-1.6C66.5,69.2,66.3,69,66,69c-0.5,0-1.2,0.4-1.1,1.1
						c0,0.2,0.1,0.5,0.2,0.7c0.2,0.7,0.1,1.3-0.5,1.6c-0.1,0-0.2,0.1-0.3,0.2C64,73,63.6,73.4,63.6,73.9z"/>
					<path class="st1" d="M49.1,69.4c0.8,0,1.3,0.7,1.2,1.5c0,0.2-0.1,0.4-0.1,0.6c-0.1,0.3,0,0.6,0.4,0.8c0.3,0.2,0.5,0.3,0.8,0.5
						c0.6,0.5,0.7,1.4,0.1,1.9c-0.3,0.3-0.6,0.4-1,0.1c-0.3-0.2-0.5-0.4-0.8-0.7c-0.9-1.1-1.3-2.5-1.5-3.9
						C48.3,69.8,48.6,69.4,49.1,69.4z"/>
					<path class="st1" d="M63.6,73.9c0-0.5,0.4-0.9,0.8-1.3c0.1-0.1,0.2-0.1,0.3-0.2c0.6-0.3,0.7-0.9,0.5-1.6
						c-0.1-0.2-0.1-0.5-0.2-0.7c-0.1-0.6,0.6-1,1.1-1.1c0.3,0,0.5,0.2,0.6,0.5c0.2,0.5,0.2,1,0.1,1.6c-0.3,1.2-0.7,2.4-1.5,3.4
						c-0.3,0.4-0.5,0.5-0.8,0.4C63.9,74.8,63.6,74.4,63.6,73.9z"/>
				</g>
			</g>
		</g>
	</g>
</g>
</svg>
