<?xml version="1.0" encoding="UTF-8" standalone="no"?>
<!-- Created with Inkscape (http://www.inkscape.org/) -->
<svg
   xmlns:dc="http://purl.org/dc/elements/1.1/"
   xmlns:cc="http://creativecommons.org/ns#"
   xmlns:rdf="http://www.w3.org/1999/02/22-rdf-syntax-ns#"
   xmlns:svg="http://www.w3.org/2000/svg"
   xmlns="http://www.w3.org/2000/svg"
   xmlns:sodipodi="http://sodipodi.sourceforge.net/DTD/sodipodi-0.dtd"
   xmlns:inkscape="http://www.inkscape.org/namespaces/inkscape"
   width="210mm"
   height="297mm"
   viewBox="0 0 851 315"
	 style="enable-background:new 0 0 851 315;"
	 xml:space="preserve"
   id="svg2"
   version="1.1"
   inkscape:version="0.91 r13725"
   sodipodi:docname="drawing.svg">
	 <style type="text/css">
	 	.st0{fill:#ffffff;}
	 </style>
  <defs
     id="defs4" />
  <sodipodi:namedview
     id="base"
     pagecolor="#ffffff"
     bordercolor="#666666"
     borderopacity="1.0"
     inkscape:pageopacity="0.0"
     inkscape:pageshadow="2"
     inkscape:zoom="0.35"
     inkscape:cx="260.71429"
     inkscape:cy="405.71429"
     inkscape:document-units="px"
     inkscape:current-layer="layer1"
     showgrid="false"
     inkscape:window-width="1280"
     inkscape:window-height="716"
     inkscape:window-x="0"
     inkscape:window-y="1"
     inkscape:window-maximized="1" />
  <metadata
     id="metadata7">
    <rdf:RDF>
      <cc:Work
         rdf:about="">
        <dc:format>image/svg+xml</dc:format>
        <dc:type
           rdf:resource="http://purl.org/dc/dcmitype/StillImage" />
        <dc:title></dc:title>
      </cc:Work>
    </rdf:RDF>
  </metadata>
  <g
     inkscape:label="Layer 1"
     inkscape:groupmode="layer"
     id="layer1">
		 <g>
	 		<path class="st0" d="M307.9,115.2c-19.9,27.4-53.1,40.1-89.5,33.7c-16.8-2.9-32.8-16.3-61.4-45.5c-3.3-3.1-6.3-6.4-9.2-9.6
	 			c-0.6-0.7-1.2-1.3-1.8-2c1.5-2.3,3.2-4.8,4.7-7.5l20.5-35.4c4.1,0.5,7.9,0.8,11.6,0.8c32.8,0,62.1-18.2,80.4-50.1
	 			c7-12.2,10.7-24.6,10.8-35.8c0-24.2-15.8-41.8-37.7-41.8c-16.7,0-34.1,12-45.3,31.4L154.5,16c-10-6.8-15.8-17.3-15.8-28.9
	 			c0-10.7,5-20.4,14.2-27.6l3.2-2.5l-12.7-22.8l-4.3,3c-17.8,12.7-27.6,30.5-27.6,50.2c0,20.9,11.3,40.1,29.7,51.3l-17.4,30.1
	 			c-0.1,0.3-0.3,0.5-0.5,0.8c-9.2-7.6-21.5-15-37.5-15c-25.4,0-38.7,18.1-38.7,36c0,17.3,12.4,35.8,39.8,35.9c13.2,0,27-4.9,39-13.9
	 			c3,3.2,6,6.4,9.1,9.7c23.8,25.6,53.4,51.8,85.3,54.6c64.6,5.8,102.9-30.4,117.1-50.9l7.5-12.6l-35.3,0.9L307.9,115.2z M236.1-47
	 			c2.4,0,8.9,0,8.9,10.6c0,20-24.8,57.9-59.1,60.1l31.8-54.9C223.6-41.2,230.3-47,236.1-47z M83.4,83.3c5.9,0,12.7,2.9,20.6,8.9
	 			C98.2,96.1,91.8,98,84.6,98c-6,0-9.6-2.7-9.6-7C74.9,87.1,77.9,83.3,83.4,83.3z"/>
	 		<path class="st0" d="M793.5,55.6l-3.1-1.4l-4,4.6c-26.8,31-38.4,35.6-42.8,35.6c-0.6,0-1-0.1-1.2-0.1c0-0.6,0.1-2.5,2.4-6.5
	 			L780.7,25c8.2-14.2,4.9-24.2,2.2-28.8c-3.9-6.8-11.2-10.8-19.5-10.8c-6.1,0-12.2,1.6-18.3,4.8l1.3-2.4l-35.7-0.1L665,66.4
	 			c-5.1,3.6-10.6,6.3-16.2,7.7l18.7-32c8.3-14.3,9.2-29.9,2.3-41.7c-5.7-10.1-16.4-16.1-28.6-16.1c-22.6,0-38.3,10.4-52.5,34.8
	 			l-12.2,21.2l-10.8,18.4c-2.1,3.7-3.9,7.3-5.3,10.8c-19.8,21.2-29,24.6-32.9,24.6c-0.6,0-1-0.1-1.2-0.1c0-0.6,0.1-2.5,2.4-6.4
	 			L617.2-65L581.4-65L546.8-5.6c-5.2-5.1-12.7-9.3-22-9.4c-14.3,0-34.9,10.6-46.7,31L446,71.3c-18.6,19.3-27.3,22.6-31.1,22.6
	 			c-0.5,0-0.9-0.1-1.2-0.1c0-0.6,0.2-2.5,2.5-6.5l35.9-62.8c8.1-14.2,4.9-24.2,2.2-28.8C450.3-11,443-15,434.7-15.1
	 			c-6.1,0-12.2,1.6-18.3,4.8l1.3-2.4L382-12.7l-45.7,78.7c-5.1,3.6-10.6,6.3-16.2,7.7l18.6-32c8.3-14.3,9.2-29.9,2.4-41.7
	 			c-5.8-10.1-16.5-16.1-28.6-16.1c-22.6,0-38.2,10.4-52.4,34.8l-12.2,21.2l-10.8,18.4c-10.4,17.8-12.3,34-5.4,46
	 			c5.6,9.7,16.3,15.3,29.3,15.3l0,0c15.9,0,32.4-8.4,44.6-22.8l3.3,0c3.2,0,6.6-0.4,10.3-1.1l-11.8,20.5l36,0.1l39.3-68.2
	 			c20.8-25.9,33.9-33.8,38.8-34.4c-0.1,1.1-0.6,3.3-2.5,6.5l-32.4,56.2c-6.3,11-7.2,22.2-2.3,30.6c4.4,7.6,12.7,11.8,23.3,11.8
	 			c9.9,0,20.7-4.3,32.7-13c0.2,0.4,0.4,0.9,0.6,1.3c4.4,7.6,12.7,11.8,23.3,11.8c11.1,0,22.8-6.4,31.9-13c4,8.1,12.8,13.1,24,13.1
	 			c11.5,0,24.2-5.7,38.6-17.6c0.5,1.2,1,2.3,1.6,3.4c5.6,9.7,16.3,15.3,29.3,15.3l0,0c15.9,0,32.4-8.4,44.5-22.8l3.3,0
	 			c3.2,0,6.7-0.4,10.3-1.1l-11.9,20.5l36,0.1l39.3-68.2C732,22.5,745.2,14.7,750.1,14c-0.1,1.1-0.7,3.3-2.6,6.5l-32.4,56.2
	 			c-6.3,11-7.1,22.2-2.3,30.6c4.4,7.6,12.7,11.8,23.3,11.8c18.7,0,40.5-15.1,68.4-47.4l2.1-2.4l-1.5-2.8
	 			C803.1,62.2,798.1,57.6,793.5,55.6z M278.5,83.9c-4.2,6.1-10.1,8.7-14.3,8.7c-1.3,0-3.6-0.3-4.6-2c-1.5-2.5-0.4-7.5,2.9-13.2
	 			l18.9-32.7l12-20.3c6.6-11.2,13.7-15.2,17.8-15.2c1.7,0,2.9,0.7,3.6,2c1.5,2.6,1.4,8.3-3.2,16.3l-16.9,28.8 M607.2,84.3
	 			c-4.2,6.1-10.1,8.7-14.4,8.7l0,0c-1.3,0-3.6-0.3-4.6-2c-1.5-2.5-0.4-7.5,2.9-13.2l18.9-32.7l12-20.3c6.6-11.2,13.7-15.2,17.8-15.2
	 			c1.7,0,2.9,0.7,3.6,2c1.5,2.6,1.4,8.3-3.3,16.3l-16.9,28.8 M524.3,14.7c1.3,0,3.5,0.3,4.6,2.1c1.3,2.2,0.6,6.3-1.9,10.9l-1.7,3.3
	 			l-17,29c-15.4,25.1-29.5,34-36.9,34c-0.6,0-1-0.1-1.2-0.1c0-0.6,0.1-2.5,2.4-6.5L507.6,27C512.8,17.9,519.9,14.7,524.3,14.7z"/>
	 	</g>
	 	<g>
	 		<path class="st0" d="M482.5,255.7l25.4-24.9c13.5-13,18.8-27.7,14.2-39.3c-3.4-8.5-11.9-13.7-22.7-13.7
	 			c-19.1,0-41.5,8.4-46.2,73.7l-28.5,27.9c-8.4-6.9-19-10.6-30.2-10.6c-20.8,0-38.2,8.7-49.3,24.5c-10.9,15.7-14.1,36.5-8.7,55.3
	 			c-8.9,0.8-17.4-1.4-24.2-6.1l-3.4-2.3l-12,15l3,2.8c12.3,11.2,29.2,15.4,47.4,11.7c12.4,15.9,32.1,24.6,55.9,24.6
	 			c46.9,0.1,78.4-41,78.5-102.2C481.7,276.8,482,265.1,482.5,255.7z M498.6,199.2c0.7,0,1.1,0.1,1.1,0c0.4,1.6-1.1,9.5-15.7,23.7
	 			C489.5,201.9,495.7,199.2,498.6,199.2z M394.4,293.2c4.5,0,8.8,1.1,12.7,3.2l-34.7,34c-2.9,2.8-6.2,5.5-9.6,7.9
	 			c-2.5-10.9-0.5-22.9,5.6-31.7C372.7,300.5,380.6,293.2,394.4,293.2z M403.2,367.2c-11.7,0-21.4-3.2-28.4-9.2
	 			c5.4-3.4,10.8-7.7,16-12.8l29.7-29.1c0.3,6.4-2.6,12.6-8.3,18.2l-3.2,3l15.4,15.8l3.1-2.5c12.7-10.4,20.9-30.3,11.4-52.3l13-12.8
	 			l0,6.6C451.8,328.4,439,367.2,403.2,367.2z"/>
	 		<path class="st0" d="M691.9,324.8c-2-3.9-6.6-8.2-10.8-10.1l-2.9-1.2l-3.7,4.2c-24.8,28.7-35.6,33-39.7,33c-0.6,0-0.9-0.1-1.1-0.1
	 			c0-0.6,0.1-2.3,2.2-6l41.1-71.7l-16.5,0c-0.7-4.8-3.1-9.6-6.9-13.7c-5.6-6.1-13.2-9.6-21.4-9.6c-13.2,0-32.3,9.8-43.3,28.7
	 			l-21.8,37.5l-1.5,1.7c-17.3,20-37.3,33-50.8,33c-5.6,0-9.8-1.6-11.4-4.5c-2-3.4-0.8-9.3,3.3-16.5l0.4-0.8c3.8,1.1,8,1.7,12.4,1.7
	 			c9.4,0,33-3,49.5-31.4l3.3-5.7c6.6-11.3,7.5-22.3,2.5-31c-4.5-8.1-13.8-12.9-24.6-12.9c-19.6,0-36.3,10.2-47.1,28.7L479,319.5
	 			c-7.8,13.4-8.9,27.1-2.8,37.7c5.8,10.2,17.4,16.1,31.8,16.1c16.1,0,31.3-7.1,44.3-16.1c0.5,1.8,1.1,3.6,2.1,5.3
	 			c4.1,7,11.8,10.9,21.6,10.9c10.2,0,21.1-5.9,29.6-12.1c3.7,7.5,11.8,12.1,22.2,12.1c17.4,0,37.6-14,63.5-44l1.9-2.2L691.9,324.8z
	 			 M631.8,277c1.2,0,3.2,0.3,4.2,1.9c1.2,2.1,0.6,5.8-1.7,10.1l-17.9,31.2c-14.3,22.4-26.7,30.3-33.6,30.3c-0.5,0-0.9-0.1-1.1-0.1
	 			c0-0.6,0.1-2.3,2.2-6l32.2-56C621.2,280,627.7,277,631.8,277z M518.5,309.2l11.9-20.8c5.2-9,12.1-13,16.2-13c1.8,0,2.2,0.8,2.4,1
	 			c0.9,1.6,0.7,5.9-3.2,12.6l-3.3,5.7C536.3,305.3,528,310.3,518.5,309.2z"/>
	 	</g>
	 	<path class="st0" d="M437,150.1l-24.1,41.8c-10.4,9.5-15.9,12.4-17.7,12.7c0.2-1.2,1.8-3.8,2.4-4.9l28.6-49.7l-19.1,0l-24.5,42.2
	 		c-2.7,1.9-5.6,3.3-8.6,4l10-17.2c3.5-6.2,5.3-11.7,5.3-16.4c0-8.5-5.9-14.4-14.5-14.5c-0.9,0-1.8,0.1-2.8,0.3l15.4-26.6l-19.4,0
	 		L329.6,188c-3.4,5.7-5.1,11.1-5.1,16.1c0,9.9,7.3,16.7,17.8,16.7c8.7,0,17.3-4.4,23.8-12.3c0.6,0.1,1.2,0.1,1.8,0.1
	 		c2.5,0,5.3-0.4,8.3-1.2c-0.3,2.9,0.1,5.6,1.4,7.8c1.9,3.3,5.3,5.1,9.8,5.1c1.1,0,2.3-0.1,3.5-0.4c-15.2,5.8-23,13.3-23,22.4
	 		c0,3.8,1.5,7.3,4.3,9.6c2.5,2.2,6,3.4,9.8,3.4c7.7,0,15.2-4.7,19.8-12.6l9.8-16.7c14.4-4.7,28.2-14.9,42.2-31.1l1.1-1.2l-0.7-1.5
	 		c-1.2-2.3-3.8-4.8-6.3-5.8l-1.7-0.7l-2.1,2.4c-8.4,9.7-15.4,16.2-22.3,20.5l34.3-58.5L437,150.1z M389.7,232.8l-3.2,5.6
	 		c-1.5,2.7-3.1,3.4-3.7,3.4c0,0-0.1-0.1-0.1-0.6C382.7,238.5,385.1,235.7,389.7,232.8z M354.9,184.1c0-8.8,8.6-22.4,14.2-22.4
	 		c2.1,0,2.5,2,2.5,3.2c0,1.3-0.4,3.6-2.2,6.6l-11.9,20.5C355.7,190,354.9,187.3,354.9,184.1z M344,206.5c-1.1,0-2.8-0.3-2.8-2.6
	 		c0-1.4,0.7-3.2,2-5.6l1.8-3.1c1.3,3.2,3.2,5.9,5.7,7.9C348.4,205.6,345.8,206.5,344,206.5z"/>
	</g>
</svg>
